<?xml version="1.0" standalone="no"?>
<!DOCTYPE svg PUBLIC "-//W3C//DTD SVG 20010904//EN"
 "http://www.w3.org/TR/2001/REC-SVG-20010904/DTD/svg10.dtd">
<svg version="1.0" xmlns="http://www.w3.org/2000/svg"
 width="715.000000pt" height="672.000000pt" viewBox="0 0 715.000000 672.000000"
 preserveAspectRatio="xMidYMid meet">

<g transform="translate(0.000000,672.000000) scale(0.100000,-0.100000)"
fill="#000000" stroke="none">
<path d="M2240 6190 c-12 -23 -13 -60 -1 -79 14 -22 2 -46 -30 -58 -22 -8 -29
-8 -29 0 0 7 -9 27 -21 46 -20 33 -21 33 -35 13 -9 -14 -11 -28 -6 -43 6 -15
11 -18 16 -11 4 7 12 10 17 6 5 -3 7 -10 3 -15 -3 -5 0 -17 7 -25 16 -20 2
-31 -21 -16 -28 17 -24 2 6 -27 27 -26 27 -44 1 -49 -12 -2 -17 3 -17 17 0 16
-6 21 -25 21 -14 0 -25 -4 -25 -8 0 -11 -78 -62 -96 -62 -8 0 -14 5 -14 10 0
6 -6 10 -13 10 -14 0 -41 39 -33 47 3 3 -2 19 -10 35 -12 23 -19 27 -27 19 -9
-9 -8 -17 1 -31 9 -15 10 -26 2 -40 -14 -27 -36 -25 -62 5 -12 14 -28 25 -35
25 -20 0 -16 -10 12 -32 14 -11 25 -26 25 -34 0 -42 -74 29 -91 89 -16 58 -41
64 -37 10 1 -26 11 -47 30 -66 33 -34 38 -61 9 -52 -11 3 -22 1 -26 -5 -5 -8
-12 -7 -24 4 -11 10 -21 12 -31 5 -13 -8 -11 -13 9 -29 34 -29 68 -35 90 -16
28 25 32 19 11 -16 -11 -18 -23 -41 -26 -51 -5 -14 -15 -18 -42 -15 -22 2 -37
-2 -40 -10 -2 -7 -22 -24 -43 -38 -50 -31 -50 -46 1 -39 21 2 42 0 45 -6 4 -5
15 -7 24 -4 12 4 21 -3 29 -20 16 -36 14 -54 -3 -31 -13 17 -17 18 -41 6 -15
-9 -28 -10 -32 -5 -4 6 -17 16 -29 23 -21 11 -23 10 -23 -9 0 -12 -5 -19 -12
-16 -7 2 -21 0 -31 -5 -25 -13 -33 15 -13 44 20 28 20 48 1 48 -8 0 -17 -11
-21 -24 -6 -26 -42 -42 -58 -26 -6 6 -4 16 6 27 8 10 13 24 11 31 -4 10 -9 8
-20 -7 -17 -24 -51 -28 -59 -6 -4 8 -13 15 -21 15 -10 0 -13 -6 -9 -16 3 -9 6
-18 6 -20 0 -2 6 -4 13 -4 6 0 20 -19 30 -42 13 -33 14 -43 5 -50 -21 -12 -25
-10 -33 20 -4 15 -10 21 -12 15 -3 -7 -11 -13 -20 -13 -10 0 -12 -6 -8 -20 5
-15 0 -21 -19 -26 -13 -3 -33 -3 -44 0 -23 8 -52 -2 -52 -16 0 -6 -8 -17 -17
-24 -17 -12 -17 -13 0 -19 23 -10 46 11 40 35 -6 24 24 28 33 5 5 -11 10 -13
19 -5 9 8 14 6 19 -5 8 -21 -3 -43 -24 -50 -10 -3 -20 -16 -24 -28 l-6 -22
-15 23 c-23 32 -38 28 -30 -10 6 -31 5 -32 -10 -14 -8 11 -15 25 -15 31 0 13
-25 35 -63 54 -15 8 -27 18 -27 23 0 16 -40 47 -54 42 -10 -4 -5 -14 21 -40
35 -35 36 -54 2 -54 -10 0 -19 -4 -19 -8 0 -5 -6 -17 -14 -27 -14 -19 -15 -19
-35 -1 -12 11 -21 28 -21 38 0 15 -6 19 -27 18 -45 -3 -47 -1 -27 21 19 22 19
22 -3 8 -20 -12 -25 -11 -40 4 -16 15 -16 19 -3 27 8 5 25 10 38 10 33 0 27
17 -10 22 -19 3 -38 -1 -49 -10 -16 -14 -16 -17 -1 -41 9 -14 22 -30 29 -34 8
-5 11 -18 7 -34 -6 -22 -4 -24 12 -19 13 4 24 -1 34 -14 8 -11 22 -20 32 -20
11 0 18 -7 18 -19 0 -14 -10 -20 -41 -24 -23 -3 -45 -11 -49 -17 -10 -16 -50
-3 -50 16 0 9 10 14 28 14 27 0 52 15 52 32 0 4 -9 8 -19 8 -11 0 -21 4 -23
10 -2 5 -17 12 -35 16 -26 5 -31 3 -30 -11 1 -10 -4 -20 -10 -22 -8 -3 -13 4
-13 16 0 24 -22 19 -59 -13 l-23 -21 4 38 c6 51 -18 49 -25 -3 -6 -50 1 -80
20 -80 10 0 12 6 8 20 -5 16 -2 20 18 20 25 0 52 -22 40 -33 -3 -4 -16 -7 -29
-7 -12 0 -24 -5 -26 -10 -5 -15 -64 16 -72 37 -4 8 -4 31 0 49 5 28 3 34 -10
34 -11 0 -14 -4 -10 -12 5 -9 2 -8 -9 1 -15 12 -21 11 -41 -8 l-24 -23 -11 21
c-20 37 -48 45 -86 23 l-33 -20 1 69 c1 38 4 69 7 69 3 0 7 45 8 99 3 104 -12
144 -23 64 -12 -88 -17 -138 -16 -161 1 -12 -6 -25 -14 -28 -8 -4 -15 -15 -15
-27 0 -11 -3 -18 -6 -14 -7 7 -7 118 2 317 4 88 3 151 -2 147 -5 -5 -10 -27
-11 -50 0 -23 -8 -111 -17 -196 -9 -85 -16 -156 -16 -158 0 -2 -15 -1 -32 2
-18 3 -59 7 -92 9 -32 3 -60 7 -63 10 -3 3 -12 -2 -21 -11 -12 -12 -29 -14
-74 -10 l-58 5 0 -35 c0 -29 2 -33 14 -24 17 14 107 2 113 -16 5 -15 -32 -21
-74 -12 -22 5 -31 3 -26 -4 4 -6 0 -8 -10 -4 -14 5 -17 0 -17 -28 0 -28 4 -35
20 -35 27 0 25 -14 -2 -28 -22 -10 -21 -11 10 -11 21 -1 32 -6 32 -16 0 -8 7
-15 15 -15 8 0 15 7 15 15 0 8 -4 15 -10 15 -5 0 -10 9 -10 21 0 12 5 19 13
16 6 -2 11 -11 9 -21 -2 -11 4 -16 19 -16 16 0 19 4 14 18 -21 47 -13 57 50
62 49 5 54 7 26 10 -23 3 -35 11 -37 23 -3 20 -4 20 71 3 39 -10 65 -11 77 -5
21 12 20 14 23 -37 3 -38 1 -41 -20 -37 -24 5 -39 -21 -35 -64 1 -14 -4 -23
-13 -23 -12 0 -14 9 -10 39 6 44 -6 57 -38 41 -19 -11 -19 -13 -5 -29 9 -10
16 -24 16 -32 -1 -11 -4 -10 -14 4 -19 24 -40 23 -26 -2 15 -29 -1 -34 -88
-27 -80 6 -115 -2 -90 -21 25 -19 48 -23 48 -7 0 11 11 14 53 11 35 -2 52 -7
52 -16 0 -16 -133 -23 -152 -8 -10 8 -13 -111 -13 -586 0 -493 2 -595 13 -591
8 3 33 0 58 -5 38 -9 46 -7 62 10 27 29 40 24 32 -13 -9 -42 -35 -62 -50 -38
-10 16 -41 12 -59 -9 -24 -26 -7 -35 68 -33 86 3 132 -9 128 -33 -4 -22 14
-35 52 -35 24 0 27 2 16 15 -7 8 -19 15 -26 15 -8 0 -14 6 -14 14 0 7 -7 19
-15 26 -23 19 -18 33 9 26 14 -3 28 -2 31 4 9 15 25 12 25 -4 0 -19 179 -64
201 -50 6 3 16 0 24 -6 11 -9 19 -9 28 -2 18 15 64 3 70 -19 4 -16 15 -19 67
-19 54 0 61 2 50 15 -11 13 -7 15 25 15 21 0 46 -7 55 -15 9 -8 39 -17 66 -19
27 -3 62 -9 77 -15 35 -13 37 -14 37 -1 0 6 -8 10 -17 10 -13 0 -14 3 -5 12 9
9 33 9 93 2 64 -8 85 -7 100 4 17 11 23 11 45 -7 17 -13 48 -22 94 -27 39 -4
75 -13 81 -20 15 -19 29 -18 29 2 0 12 6 15 23 10 54 -13 167 -18 179 -8 12
10 52 13 198 15 30 1 58 6 62 11 4 6 12 5 20 -2 8 -6 23 -9 35 -6 12 3 42 -6
73 -21 49 -25 53 -25 65 -9 12 17 16 17 76 -3 55 -18 80 -21 165 -16 70 4 103
2 108 -6 4 -6 18 -11 32 -11 29 0 30 -4 3 -46 -12 -21 -48 -50 -90 -75 -38
-22 -97 -63 -131 -92 -34 -29 -114 -87 -177 -130 -64 -43 -133 -96 -155 -118
-39 -40 -82 -52 -92 -25 -3 8 -1 37 4 66 8 44 7 52 -7 57 -9 3 -25 14 -36 24
-41 37 -138 52 -279 45 -82 -4 -139 -12 -157 -22 -53 -27 -159 -141 -183 -196
-42 -94 -42 -154 -1 -313 32 -122 36 -152 33 -235 l-3 -95 32 -3 32 -3 -60
-74 c-33 -41 -73 -84 -89 -95 -18 -13 -27 -26 -23 -35 4 -12 -5 -15 -43 -16
-75 -2 -95 1 -123 19 -15 10 -47 17 -81 18 -57 1 -142 18 -172 34 -20 11 -68
13 -91 4 -13 -5 -13 -9 1 -34 17 -29 65 -50 118 -50 16 0 65 -7 109 -15 44 -9
117 -16 163 -17 92 -1 98 -8 57 -56 -17 -21 -31 -28 -45 -25 -11 3 -20 0 -20
-6 0 -6 7 -11 15 -11 25 0 18 -19 -43 -109 -32 -47 -65 -102 -74 -121 -29 -63
-76 -184 -93 -240 -9 -30 -23 -65 -31 -77 -7 -12 -25 -53 -40 -90 -24 -62 -25
-76 -19 -165 3 -54 20 -162 37 -240 38 -177 46 -291 25 -356 -8 -26 -23 -81
-32 -122 -9 -41 -25 -104 -35 -140 -60 -217 -106 -418 -114 -497 -3 -28 -19
-84 -35 -123 -17 -40 -31 -74 -31 -76 0 -2 389 -4 865 -4 476 0 865 3 865 8 0
11 -88 151 -110 175 -17 18 -18 22 -4 48 8 16 18 29 23 29 20 0 121 -174 135
-232 l6 -28 1059 0 1059 0 6 30 c6 33 44 90 59 90 9 0 8 -7 -11 -82 l-10 -38
230 0 229 0 -20 29 c-12 16 -21 33 -21 38 0 4 28 26 61 48 59 39 109 102 109
138 0 9 7 32 16 51 16 32 34 46 77 60 19 6 23 41 6 52 -7 4 -46 14 -87 24 -42
9 -77 21 -79 27 -4 12 73 23 85 11 10 -9 90 -36 95 -31 3 2 -2 21 -9 42 -7 21
-18 68 -25 104 l-12 66 32 37 c58 65 74 116 78 244 2 63 8 124 13 135 5 11 11
43 14 71 5 41 3 53 -9 58 -21 8 -19 23 5 29 17 4 20 14 21 69 0 34 2 92 4 127
2 35 0 60 -4 55 -10 -12 -31 -86 -31 -111 0 -11 -7 -26 -15 -33 -8 -7 -15 -21
-15 -30 0 -12 -12 -22 -32 -28 -75 -23 -83 -23 -103 5 -11 15 -28 34 -38 42
-31 27 -75 137 -60 152 14 14 44 -23 46 -57 1 -15 8 -29 15 -32 13 -4 6 56 -9
73 -19 20 -7 27 44 22 28 -3 61 -6 72 -8 15 -3 20 1 19 17 0 19 5 21 50 20 42
-1 51 2 54 18 4 19 -53 86 -73 86 -18 0 -34 43 -28 73 3 16 12 27 22 27 9 0
31 14 49 30 18 17 38 30 43 30 5 0 12 6 15 14 3 8 11 13 18 10 7 -3 19 2 26
10 7 9 17 13 22 10 5 -3 21 -3 35 1 26 6 26 7 7 25 -17 17 -46 24 -81 21 -7
-1 -13 -8 -13 -17 0 -8 -4 -12 -10 -9 -5 3 -10 26 -10 51 0 52 -17 58 -56 19
-24 -24 -25 -24 -19 -4 5 15 0 29 -18 47 -23 26 -31 48 -57 167 -6 28 -13 57
-15 65 -3 8 0 22 5 30 8 12 16 8 47 -26 39 -42 77 -62 87 -46 10 17 -14 131
-36 169 -29 50 -28 50 -38 33 -8 -13 -10 -12 -10 3 0 21 -38 82 -81 131 -24
28 -27 36 -14 36 9 0 30 -14 47 -30 36 -37 47 -32 29 13 -24 59 -24 66 -5 74
11 3 22 11 26 16 3 6 15 -8 27 -29 16 -31 20 -34 21 -17 0 12 -4 33 -10 47 -8
22 -14 25 -38 20 -24 -5 -30 -2 -35 15 -3 12 -12 21 -21 21 -9 0 -16 7 -16 15
0 17 30 35 59 35 16 0 21 9 27 57 6 47 4 58 -11 69 -21 16 -40 103 -25 118 5
5 10 38 10 73 0 46 4 65 14 69 11 4 15 21 14 57 -1 59 -13 91 -33 83 -7 -2
-18 1 -24 8 -8 10 -6 19 9 36 21 24 27 70 11 70 -6 0 -11 23 -13 52 -2 28 -8
53 -13 55 -6 2 -20 -23 -32 -54 -22 -57 -23 -57 -19 -18 2 22 16 86 31 142
l27 103 39 -6 c32 -5 39 -4 39 10 0 12 -9 16 -35 16 -38 0 -57 22 -37 42 8 8
16 7 27 -2 13 -10 56 -13 178 -12 271 2 255 0 233 17 -19 14 -19 15 8 15 15 0
37 -10 51 -24 13 -13 30 -26 37 -29 9 -4 9 -6 -2 -6 -9 -1 -21 -6 -28 -13 -7
-7 -32 -11 -57 -9 -25 1 -45 -2 -45 -7 0 -10 47 -22 85 -22 13 0 25 -3 28 -7
2 -5 2 -2 1 5 -4 14 76 17 104 3 9 -5 60 -14 112 -20 53 -6 111 -18 129 -27
41 -20 135 -32 111 -14 -11 9 11 10 95 5 114 -7 157 -13 238 -36 41 -12 49
-11 57 1 8 13 22 12 112 -3 57 -9 128 -17 158 -18 30 0 75 -4 100 -9 48 -9 64
-5 40 10 -20 13 2 13 35 0 14 -5 66 -11 115 -14 l90 -3 0 764 0 765 -36 -6
c-41 -8 -97 -40 -87 -49 3 -4 -3 -7 -14 -7 -12 0 -31 -8 -44 -19 l-23 -18 22
-12 c12 -6 27 -10 34 -9 6 2 14 -5 16 -16 3 -12 0 -16 -8 -11 -7 4 -38 9 -69
12 -72 5 -81 8 -81 32 0 25 29 35 50 16 21 -19 30 -19 30 0 0 14 -12 20 -33
16 -5 -1 -11 8 -14 19 -3 11 -12 20 -20 20 -7 0 -27 10 -42 21 -16 12 -34 18
-40 15 -6 -4 -11 -3 -11 3 0 5 6 12 13 14 6 3 -7 6 -30 6 -75 2 -66 41 9 41
21 0 37 4 35 9 -1 5 3 9 8 10 6 0 9 -9 7 -19 -3 -18 3 -20 53 -20 l56 0 -3 33
c-3 31 -4 32 -54 32 -28 0 -58 6 -67 13 -9 8 -44 16 -77 19 -33 3 -58 8 -55
11 3 3 0 11 -6 19 -9 10 -25 12 -60 7 -45 -6 -49 -5 -49 15 0 32 3 36 24 33
26 -3 56 26 56 54 0 16 -10 29 -30 39 -29 15 -50 58 -35 73 3 4 14 -2 22 -13
11 -14 17 -16 20 -7 3 6 13 12 23 12 10 0 22 5 25 11 4 6 13 8 19 6 7 -3 28
-2 47 2 l34 8 -27 13 c-29 13 -38 39 -15 41 6 0 2 4 -10 9 -13 6 -33 5 -52 -3
-38 -14 -84 0 -90 28 -3 17 -1 18 13 6 14 -11 17 -10 24 9 l9 23 15 -22 c11
-16 17 -18 21 -9 8 23 -12 50 -33 43 -11 -3 -22 0 -27 8 -11 18 -41 28 -49 16
-14 -23 -27 1 -28 52 -1 54 -1 54 -31 51 -16 -2 -34 -8 -40 -13 -12 -12 -52
-12 -60 0 -3 5 1 15 8 23 7 7 16 21 20 31 5 14 11 16 27 7 11 -6 20 -15 20
-21 0 -5 10 -1 22 11 25 23 30 56 14 83 -8 13 -8 20 3 26 8 5 12 18 8 31 -3
13 0 23 9 27 19 7 18 33 -2 33 -11 0 -14 5 -10 16 4 12 2 15 -9 10 -8 -3 -22
-9 -31 -13 -13 -5 -15 -2 -9 15 4 14 2 22 -5 22 -7 0 -8 6 -2 16 16 29 3 56
-24 50 -26 -7 -42 9 -19 18 8 3 15 10 15 16 0 7 -6 8 -19 0 -23 -12 -40 5 -22
23 7 7 4 14 -12 22 -35 18 -51 8 -32 -21 8 -13 12 -24 8 -24 -5 0 0 -5 10 -11
13 -7 16 -17 11 -32 -7 -21 -34 -55 -34 -41 0 3 -6 2 -12 -4 -20 -15 -78 -25
-78 -13 0 6 -8 11 -17 10 -11 0 -13 -3 -6 -6 8 -3 11 -14 7 -28 -10 -39 40
-113 63 -94 18 16 42 4 53 -27 11 -29 -1 -54 -27 -54 -10 0 -12 6 -8 21 7 21
6 21 -15 6 -17 -12 -28 -13 -46 -5 -13 6 -24 15 -24 20 0 10 11 10 29 -1 16
-10 41 -4 41 10 0 5 -11 11 -25 15 -14 3 -25 9 -25 13 0 11 -43 33 -49 24 -12
-16 -71 -44 -81 -38 -6 3 -10 13 -10 21 0 8 4 13 9 10 5 -3 11 1 15 9 3 8 0
17 -5 21 -6 3 -9 15 -6 25 3 11 1 19 -5 19 -5 0 -22 9 -36 20 -26 21 -26 21
-4 27 26 6 29 18 7 27 -12 4 -13 10 -6 25 8 14 7 22 -4 31 -21 18 -91 -44 -87
-76 2 -13 -1 -31 -6 -41 -8 -13 -6 -20 6 -29 15 -11 14 -14 -12 -23 -23 -9
-27 -16 -24 -36 4 -21 1 -25 -18 -25 -15 0 -24 -6 -24 -15 0 -8 5 -15 10 -15
17 0 11 -37 -7 -44 -14 -6 -14 -8 3 -20 22 -17 36 -12 27 11 -5 13 0 15 31 11
27 -3 35 -1 32 9 -9 22 12 25 24 3 13 -25 5 -41 -16 -33 -14 5 -15 1 -9 -25 4
-21 3 -32 -4 -32 -6 0 -11 6 -11 14 0 8 -6 16 -14 19 -10 4 -16 -2 -18 -20 -4
-32 -28 -44 -28 -14 0 27 -9 26 -51 -2 -19 -13 -55 -33 -81 -45 -56 -28 -66
-48 -38 -76 l22 -21 -3 25 c-6 45 26 71 33 28 2 -13 9 -22 17 -20 21 4 40 -29
41 -69 0 -34 -3 -37 -32 -42 -18 -2 -38 -1 -44 4 -14 11 -42 -10 -46 -36 -2
-14 3 -21 20 -23 12 -2 22 -6 22 -9 0 -4 -21 -25 -47 -48 -43 -39 -51 -42 -88
-37 -22 2 -42 7 -45 9 -5 5 24 29 44 36 8 3 7 8 -2 18 -10 11 -18 11 -50 -1
-20 -7 -42 -19 -47 -27 -14 -18 -66 -7 -59 12 3 7 1 16 -5 20 -6 3 -11 15 -11
26 0 16 -5 19 -20 14 -24 -8 -28 16 -5 35 9 7 13 15 11 18 -3 2 -23 -10 -46
-28 -23 -18 -43 -30 -46 -27 -3 3 12 29 33 58 24 34 33 54 25 57 -16 5 -16 29
1 36 10 5 10 7 0 12 -7 3 -13 14 -13 24 0 10 -7 20 -15 24 -8 3 -15 14 -15 24
0 10 -5 23 -12 30 -9 9 -7 17 11 33 26 24 20 40 -6 17 -37 -31 -43 -31 -31 2
5 17 8 33 6 35 -2 2 -21 -11 -43 -30 -21 -19 -47 -35 -57 -35 -24 0 -51 -44
-54 -88 -3 -49 -3 -50 -15 -29 -5 9 -15 17 -22 17 -20 0 -39 -40 -32 -69 5
-24 2 -29 -30 -41 -29 -12 -35 -19 -35 -44 0 -17 4 -38 9 -46 19 -29 -2 -31
-28 -3 -25 27 -31 29 -95 27 -37 -2 -70 -5 -73 -7 -2 -3 10 -9 26 -15 17 -6
31 -15 31 -19 -1 -19 -19 -35 -34 -30 -20 8 -20 3 0 -29 20 -30 11 -44 -32
-48 -23 -3 -29 -9 -30 -27 -2 -52 -4 -62 -10 -56 -14 14 -23 87 -14 112 8 21
6 29 -15 47 -14 12 -25 31 -25 43 0 12 -9 30 -20 40 -16 15 -20 15 -20 3 0
-20 27 -73 45 -88 8 -7 15 -23 15 -36 0 -19 -5 -22 -27 -21 -19 1 -27 -2 -25
-11 1 -8 -2 -11 -8 -7 -5 3 -10 15 -10 26 0 12 -7 19 -20 19 -11 0 -20 7 -20
15 0 7 -8 18 -17 24 -14 8 -15 12 -6 22 10 10 16 9 31 -4 10 -9 21 -17 23 -17
10 0 6 105 -4 112 -8 4 -7 11 1 21 9 11 8 18 -9 33 -16 14 -23 15 -26 7 -8
-21 -35 -16 -29 5 14 42 -103 122 -156 108 -12 -3 -26 1 -32 9 -6 8 -33 15
-61 17 -39 2 -51 -1 -53 -14 -2 -9 -13 -18 -24 -21 -25 -7 -61 10 -53 23 12
19 -58 50 -111 50 -27 0 -54 4 -60 9 -14 14 -56 15 -87 3 -16 -7 -33 -12 -40
-12 -8 0 -8 -3 1 -12 7 -7 12 -18 12 -25 0 -19 -56 -41 -86 -35 -25 5 -32 26
-13 38 8 4 6 10 -6 17 -20 11 -35 -5 -35 -40 0 -27 -6 -29 -26 -9 -9 9 -10 17
-4 21 35 21 -23 65 -60 45 -15 -8 -21 -5 -34 22 -14 28 -14 33 -1 48 8 9 15
22 15 28 0 7 9 12 20 12 11 0 20 6 20 14 0 8 6 16 12 18 7 3 -6 16 -30 29 -34
19 -42 29 -39 46 2 13 -2 28 -9 34 -10 8 -11 16 -4 29 14 27 12 32 -10 25 -11
-4 -20 -2 -20 4 0 6 -9 11 -20 11 -11 0 -20 7 -20 15 0 8 -8 15 -17 15 -15 0
-16 2 -3 10 12 8 12 10 -3 16 -12 4 -15 13 -11 30 5 20 2 24 -15 24 -12 0 -21
6 -21 15 0 17 -16 20 -25 5 -3 -6 1 -13 9 -16 17 -7 22 -49 7 -58 -5 -3 -11 1
-15 9 -8 22 -21 18 -33 -8 -8 -16 -7 -25 2 -34 8 -7 11 -21 8 -32 -5 -21 -55
-47 -71 -37 -6 3 -8 -3 -5 -14 3 -12 -2 -29 -13 -41 -17 -19 -17 -21 1 -55 10
-18 22 -34 27 -34 5 0 6 -5 3 -10 -9 -14 -45 7 -45 26 0 9 -5 12 -12 8 -6 -4
-33 -6 -60 -5 -45 2 -48 1 -48 -23 0 -14 6 -29 13 -33 6 -4 21 -19 32 -32 l20
-24 -22 5 c-14 4 -28 -1 -38 -12 -15 -16 -15 -18 0 -24 9 -3 27 -6 40 -6 18 0
35 -16 35 -35 0 -3 -21 -5 -81 -7 -22 -1 -35 -6 -33 -12 5 -13 -35 -31 -85
-40 -38 -7 -71 -31 -71 -53 0 -7 7 -13 16 -13 11 0 14 -6 9 -20 -4 -13 -2 -20
7 -20 17 0 -42 -49 -60 -50 -10 0 -10 -5 -2 -20 8 -16 8 -20 -3 -20 -16 0 -36
42 -39 83 -1 15 -7 26 -13 24 -11 -5 -11 -33 0 -61 6 -14 5 -18 -6 -14 -8 2
-15 14 -17 26 -4 24 -41 40 -52 22 -4 -7 -17 -9 -33 -4 -17 4 -27 2 -27 -5 0
-18 50 -56 77 -58 32 -2 44 -13 15 -13 -13 0 -22 -6 -22 -15 0 -23 -16 -18
-42 13 -13 15 -31 26 -40 24 -11 -2 -18 3 -18 12 0 9 5 16 12 16 6 0 8 3 5 7
-4 3 0 15 9 24 16 17 15 19 -12 29 -18 7 -24 14 -17 18 16 10 3 28 -27 37 -22
7 -23 6 -12 -8 8 -9 11 -21 7 -27 -9 -15 -25 -12 -25 5 0 8 -4 15 -10 15 -22
0 -8 30 16 36 33 9 74 -14 93 -51 15 -32 25 -25 51 33 26 58 12 73 -40 43 -23
-13 -42 -21 -43 -20 -2 2 -9 16 -17 32 -9 19 -17 24 -24 17 -5 -5 -23 -10 -38
-10 -28 0 -29 2 -22 35 6 35 6 36 -20 29 -18 -4 -26 -2 -26 7 0 23 16 40 31
34 9 -3 23 3 32 13 16 18 16 20 -3 37 -11 10 -23 15 -28 10 -4 -4 -1 -10 6
-12 15 -6 16 -33 2 -33 -6 0 -13 6 -16 14 -5 12 -14 12 -66 0 -34 -8 -63 -12
-66 -9 -3 3 -3 6 -1 8 39 23 70 37 83 37 9 0 19 7 22 15 4 8 21 22 40 31 24
12 33 22 31 37 -1 16 4 23 20 25 22 3 59 49 49 60 -10 9 -96 -38 -96 -53 0
-21 -43 -57 -62 -52 -9 3 -19 0 -21 -7 -4 -13 -55 10 -74 34 -6 9 -15 11 -20
6 -4 -5 -2 -11 5 -13 6 -3 12 -10 12 -16 0 -6 10 -21 23 -35 l22 -24 -30 8
c-16 4 -32 11 -34 17 -2 5 -11 17 -21 27 -21 21 -35 73 -32 116 2 21 -6 44
-23 70 -14 21 -24 46 -22 56 6 21 -19 46 -26 26 -2 -7 0 -21 5 -32 15 -29 -7
-44 -32 -21 -19 18 -20 18 -20 -1 0 -11 9 -37 20 -59 11 -22 20 -40 20 -41 0
0 -25 -12 -55 -25 -34 -14 -54 -29 -52 -38 1 -8 -4 -16 -10 -18 -7 -3 -13 2
-13 10 0 9 -4 17 -10 19 -5 2 10 25 35 53 31 33 42 52 35 59 -7 7 -23 -3 -50
-33 -22 -24 -40 -39 -40 -33 0 6 -14 12 -32 14 -41 4 -48 25 -11 34 49 12 53
21 31 65 -18 37 -18 43 -4 64 20 30 20 31 1 39 -8 3 -19 -3 -25 -14z m236
-194 c-4 -21 -1 -39 9 -51 20 -28 18 -45 -5 -45 -13 0 -20 -7 -20 -18 0 -29
-23 -53 -40 -42 -12 8 -12 10 2 15 9 4 14 13 11 21 -3 8 -1 14 5 14 15 0 22
41 11 62 -7 13 -6 29 2 53 15 41 33 35 25 -9z m-230 -42 c-6 -21 -4 -25 11
-20 14 4 18 0 19 -19 2 -27 -13 -34 -22 -10 -7 18 -37 19 -66 4 -16 -9 -19 -8
-16 3 2 7 17 19 32 26 15 8 30 20 33 28 9 24 16 15 9 -12z m4092 -6 c-6 -18
-28 -21 -28 -4 0 9 7 16 16 16 9 0 14 -5 12 -12z m-4418 -13 c0 -16 -38 -40
-48 -30 -4 4 4 15 17 26 28 23 31 23 31 4z m1600 -5 c-20 -13 -43 -13 -35 0 3
6 16 10 28 10 18 0 19 -2 7 -10z m-1459 -33 c-13 -13 -26 -3 -16 12 3 6 11 8
17 5 6 -4 6 -10 -1 -17z m346 0 c-6 -20 -27 -19 -27 2 0 14 5 19 15 14 9 -3
14 -10 12 -16z m1216 15 c10 -16 -30 -51 -52 -45 -27 7 -27 25 2 39 27 14 44
16 50 6z m-1473 -43 c0 18 40 13 47 -6 11 -33 25 -44 38 -33 15 13 45 3 45
-15 0 -7 -10 -16 -22 -20 -14 -4 -18 -8 -10 -12 14 -5 17 -33 3 -33 -21 0 -41
13 -41 26 0 18 -47 29 -63 15 -11 -8 -13 -4 -9 19 4 29 -10 41 -23 20 -9 -15
-35 -12 -35 4 0 23 41 48 57 34 9 -7 13 -7 13 1z m4230 -9 c0 -11 0 -23 1 -27
0 -4 -4 -9 -10 -11 -6 -2 -11 10 -11 27 0 17 5 31 10 31 6 0 10 -9 10 -20z
m80 11 c0 -11 -31 -24 -39 -16 -3 3 1 10 9 15 19 12 30 12 30 1z m-4590 -16
c-14 -16 -70 -21 -70 -6 0 6 17 12 38 14 20 2 39 4 41 5 2 1 -2 -5 -9 -13z
m510 -5 c0 -11 -4 -20 -10 -20 -5 0 -10 9 -10 20 0 11 5 20 10 20 6 0 10 -9
10 -20z m1380 -1 c0 -6 -4 -7 -10 -4 -5 3 -10 11 -10 16 0 6 5 7 10 4 6 -3 10
-11 10 -16z m-1460 1 c0 -5 -4 -10 -10 -10 -5 0 -10 5 -10 10 0 6 5 10 10 10
6 0 10 -4 10 -10z m234 -15 c-4 -15 -1 -32 6 -40 7 -9 10 -18 6 -22 -8 -8 -35
27 -36 48 0 13 18 39 27 39 2 0 1 -11 -3 -25z m-554 1 c0 -3 -4 -8 -10 -11 -5
-3 -10 -1 -10 4 0 6 5 11 10 11 6 0 10 -2 10 -4z m-30 -21 c0 -4 -9 -23 -27
-54 -6 -10 -33 23 -33 40 0 14 7 19 30 19 17 0 30 -2 30 -5z m159 -39 c-2 -2
-16 -2 -31 1 -29 5 -38 28 -15 36 12 5 55 -29 46 -37z m1486 34 c-3 -5 -11
-10 -16 -10 -6 0 -7 5 -4 10 3 6 11 10 16 10 6 0 7 -4 4 -10z m2465 -20 c0 -5
-4 -10 -10 -10 -5 0 -10 5 -10 10 0 6 5 10 10 10 6 0 10 -4 10 -10z m-3680
-10 c0 -5 -4 -10 -9 -10 -6 0 -13 5 -16 10 -3 6 1 10 9 10 9 0 16 -4 16 -10z
m3828 -2 c-6 -18 -28 -21 -28 -4 0 9 7 16 16 16 9 0 14 -5 12 -12z m190 -26
c2 -7 -3 -12 -12 -12 -9 0 -16 7 -16 16 0 17 22 14 28 -4z m-3794 -7 c7 -20
46 -19 46 1 0 9 5 14 12 12 21 -7 19 -25 -3 -31 -16 -4 -20 -11 -16 -26 3 -12
1 -24 -4 -27 -5 -3 -9 1 -9 9 0 8 -11 22 -25 31 -14 9 -25 23 -25 31 0 19 16
19 24 0z m-103 -18 c-10 -9 -11 -8 -5 6 3 10 9 15 12 12 3 -3 0 -11 -7 -18z
m3777 11 c-6 -16 -36 -34 -44 -26 -3 4 -4 14 -1 23 7 17 51 21 45 3z m-4088
-18 c0 -5 -4 -10 -10 -10 -5 0 -10 5 -10 10 0 6 5 10 10 10 6 0 10 -4 10 -10z
m1388 -8 c2 -7 -3 -12 -12 -12 -9 0 -16 7 -16 16 0 17 22 14 28 -4z m-1868
-12 c0 -5 -2 -10 -4 -10 -3 0 -8 5 -11 10 -3 6 -1 10 4 10 6 0 11 -4 11 -10z
m977 -26 c-9 -10 -38 16 -31 28 4 6 13 4 22 -6 9 -8 13 -19 9 -22z m-347 19
c0 -5 -13 -8 -30 -9 -16 -1 -27 3 -24 7 6 11 54 12 54 2z m386 -33 c-1 -34 -3
-38 -15 -26 -8 9 -11 24 -7 40 10 40 24 31 22 -14z m904 20 c0 -11 -7 -20 -15
-20 -15 0 -21 21 -8 33 12 13 23 7 23 -13z m-1122 -14 c3 -12 -1 -17 -10 -14
-7 3 -15 13 -16 22 -3 12 1 17 10 14 7 -3 15 -13 16 -22z m3572 14 c0 -5 -5
-10 -11 -10 -5 0 -7 5 -4 10 3 6 8 10 11 10 2 0 4 -4 4 -10z m-3502 -32 c12
-27 7 -58 -10 -58 -5 0 -6 9 -3 20 4 13 1 22 -9 26 -19 7 -22 48 -3 42 6 -3
18 -16 25 -30z m990 14 c2 -7 -3 -12 -12 -12 -9 0 -16 7 -16 16 0 17 22 14 28
-4z m671 4 c17 -20 -2 -29 -45 -22 -33 7 -41 15 -27 29 12 12 60 7 72 -7z
m-2421 -26 c14 0 15 -10 3 -29 -8 -12 -13 -11 -30 10 -27 32 -29 59 -3 36 10
-10 24 -17 30 -17z m4203 15 c-1 -15 -24 -12 -29 3 -3 9 2 13 12 10 10 -1 17
-7 17 -13z m269 0 c0 -8 -4 -15 -10 -15 -5 0 -10 7 -10 15 0 8 5 15 10 15 6 0
10 -7 10 -15z m-160 -25 c0 -11 -4 -20 -10 -20 -5 0 -10 9 -10 20 0 11 5 20
10 20 6 0 10 -9 10 -20z m-4140 -4 c0 -8 6 -16 13 -19 10 -4 10 -7 0 -18 -11
-11 -13 -10 -13 4 0 9 -7 17 -15 17 -8 0 -15 7 -15 15 0 8 7 15 15 15 8 0 15
-6 15 -14z m708 -22 c38 -5 62 -45 42 -69 -14 -17 -40 -20 -40 -5 0 6 7 10 15
10 21 0 19 17 -3 29 -14 8 -22 3 -41 -25 -18 -26 -29 -33 -43 -28 -14 4 -21 0
-25 -14 -5 -20 -49 -39 -61 -27 -10 9 12 39 37 50 13 6 21 18 20 30 -4 54 14
58 24 5 7 -30 27 -42 27 -16 0 8 8 22 17 32 13 13 14 19 5 22 -6 2 -12 13 -12
25 1 22 1 22 16 2 8 -11 18 -20 22 -21z m3589 -1 c2 -5 -3 -16 -11 -22 -13
-11 -21 -9 -46 9 -24 17 -30 18 -30 6 0 -22 -15 -27 -34 -13 -20 15 -13 44 12
49 24 5 105 -17 109 -29z m-3818 0 c2 -1 -2 -9 -9 -18 -16 -20 -30 -10 -30 22
0 23 2 24 18 12 9 -7 19 -15 21 -16z m467 0 c-7 -7 -26 7 -26 19 0 6 6 6 15
-2 9 -7 13 -15 11 -17z m824 -8 c0 -14 -2 -25 -4 -25 -2 0 -11 -3 -20 -6 -12
-5 -16 0 -16 18 0 28 7 38 27 38 7 0 13 -11 13 -25z m475 15 c-3 -5 -11 -10
-16 -10 -6 0 -7 5 -4 10 3 6 11 10 16 10 6 0 7 -4 4 -10z m-2033 -15 c0 -5 -5
-11 -11 -13 -6 -2 -11 4 -11 13 0 9 5 15 11 13 6 -2 11 -8 11 -13z m1618 7 c0
-10 -21 -32 -31 -32 -4 0 -5 9 -2 20 5 19 33 29 33 12z m-2090 -18 c0 -8 -5
-12 -10 -9 -6 4 -8 11 -5 16 9 14 15 11 15 -7z m190 6 c0 -5 -2 -10 -4 -10 -3
0 -8 5 -11 10 -3 6 -1 10 4 10 6 0 11 -4 11 -10z m2340 1 c0 -5 -7 -14 -15
-21 -16 -14 -18 -10 -9 14 6 17 24 22 24 7z m-2740 -5 c0 -3 -4 -8 -10 -11 -5
-3 -10 -1 -10 4 0 6 5 11 10 11 6 0 10 -2 10 -4z m600 -29 c0 -20 -1 -20 -16
-5 -9 9 -13 21 -9 27 10 16 25 3 25 -22z m3810 23 c0 -5 -4 -10 -10 -10 -5 0
-10 5 -10 10 0 6 5 10 10 10 6 0 10 -4 10 -10z m-5660 -31 c0 -20 -15 -26 -24
-10 -8 13 4 42 15 35 5 -3 9 -14 9 -25z m1312 14 c10 -9 18 -22 18 -30 0 -7 5
-22 12 -33 17 -26 2 -38 -17 -14 -14 17 -45 80 -45 90 0 9 15 3 32 -13z m213
6 c10 -15 -1 -23 -20 -15 -9 3 -13 10 -10 16 8 13 22 13 30 -1z m775 -25 c0
-10 -7 -13 -24 -8 -13 3 -27 1 -30 -5 -9 -14 -56 -15 -56 -1 0 11 35 32 42 24
3 -2 11 2 18 11 15 17 50 3 50 -21z m-630 16 c0 -5 -5 -10 -11 -10 -5 0 -7 5
-4 10 3 6 8 10 11 10 2 0 4 -4 4 -10z m2686 -5 c14 -13 14 -15 -2 -15 -13 0
-15 -6 -10 -30 5 -28 -8 -44 -16 -19 -5 14 3 79 9 79 2 0 11 -7 19 -15z
m-2629 -10 c8 -9 13 -19 9 -22 -7 -7 -36 16 -36 28 0 13 10 11 27 -6z m4103 1
c0 -15 -18 -31 -26 -23 -7 7 7 37 17 37 5 0 9 -6 9 -14z m-3835 -7 c4 -6 5
-12 2 -15 -7 -7 -37 7 -37 17 0 13 27 11 35 -2z m4155 7 c0 -3 -4 -8 -10 -11
-5 -3 -10 -1 -10 4 0 6 5 11 10 11 6 0 10 -2 10 -4z m148 -14 c2 -7 -3 -12
-12 -12 -9 0 -16 7 -16 16 0 17 22 14 28 -4z m-6263 -2 c3 -5 1 -10 -4 -10 -6
0 -11 5 -11 10 0 6 2 10 4 10 3 0 8 -4 11 -10z m1870 0 c3 -5 -3 -10 -14 -10
-11 0 -23 5 -26 10 -3 6 3 10 14 10 11 0 23 -4 26 -10z m2175 -54 c-18 -22
-29 -20 -36 8 -9 38 5 52 29 28 17 -18 18 -23 7 -36z m-2952 29 c2 -2 -1 -11
-7 -22 -5 -10 -12 -26 -15 -35 -3 -10 -9 -18 -14 -18 -11 0 -24 69 -16 82 5 7
41 2 52 -7z m363 2 c-1 -12 -15 -9 -19 4 -3 6 1 10 8 8 6 -3 11 -8 11 -12z
m2727 1 c6 -7 13 -31 17 -53 3 -22 9 -52 11 -67 3 -16 1 -28 -4 -28 -16 0 -32
49 -32 97 0 47 -15 51 -22 5 -5 -39 -23 -29 -26 16 -3 39 -1 42 21 42 14 0 29
-6 35 -12z m-4068 -2 c0 -2 3 -11 6 -20 5 -13 -1 -16 -25 -16 -24 0 -31 4 -31
20 0 15 7 20 25 20 14 0 25 -2 25 -4z m1075 -6 c3 -5 1 -10 -4 -10 -6 0 -11 5
-11 10 0 6 2 10 4 10 3 0 8 -4 11 -10z m4622 -12 c9 -7 7 -14 -8 -29 -22 -22
-33 -25 -26 -6 2 6 -3 17 -11 23 -8 6 -12 16 -8 22 7 11 31 7 53 -10z m-6027
-18 c0 -5 -2 -10 -4 -10 -3 0 -8 5 -11 10 -3 6 -1 10 4 10 6 0 11 -4 11 -10z
m1430 0 c0 -5 -4 -10 -10 -10 -5 0 -10 5 -10 10 0 6 5 10 10 10 6 0 10 -4 10
-10z m1140 -4 c0 -21 -20 -30 -33 -17 -9 9 -8 14 3 21 21 14 30 12 30 -4z
m2000 -48 c0 -11 -5 -16 -11 -13 -6 4 -8 13 -5 20 2 7 -2 16 -10 19 -8 3 -14
11 -14 17 0 7 8 5 20 -6 11 -10 20 -27 20 -37z m1900 42 c0 -5 -4 -10 -10 -10
-5 0 -10 5 -10 10 0 6 5 10 10 10 6 0 10 -4 10 -10z m-6181 -21 c-22 -14 -33
-10 -19 6 7 8 17 12 22 9 6 -4 5 -10 -3 -15z m771 1 c14 -10 22 -22 18 -26 -9
-8 -58 22 -58 36 0 15 12 12 40 -10z m1430 10 c0 -5 -2 -10 -4 -10 -3 0 -8 5
-11 10 -3 6 -1 10 4 10 6 0 11 -4 11 -10z m3715 -9 c-3 -6 -11 -8 -17 -5 -6 4
-5 9 3 15 16 10 23 4 14 -10z m-4217 -10 c3 -8 -1 -12 -9 -9 -7 2 -15 10 -17
17 -3 8 1 12 9 9 7 -2 15 -10 17 -17z m447 10 c3 -5 1 -12 -5 -16 -5 -3 -10 1
-10 9 0 18 6 21 15 7z m3612 -8 c-9 -9 -20 -13 -24 -9 -4 4 -1 11 7 16 25 16
35 11 17 -7z m-3717 -3 c0 -5 -5 -10 -11 -10 -5 0 -7 5 -4 10 3 6 8 10 11 10
2 0 4 -4 4 -10z m310 0 c0 -5 -5 -10 -11 -10 -5 0 -7 5 -4 10 3 6 8 10 11 10
2 0 4 -4 4 -10z m300 -15 c0 -8 -2 -15 -4 -15 -2 0 -6 7 -10 15 -3 8 -1 15 4
15 6 0 10 -7 10 -15z m-2185 -16 c-8 -12 -35 -12 -35 0 0 11 22 20 33 14 4 -2
5 -9 2 -14z m-417 3 c8 -6 3 -15 -19 -31 -36 -27 -47 -21 -31 14 12 26 27 31
50 17z m73 -14 c10 -18 9 -20 -6 -15 -9 4 -19 7 -21 7 -2 0 -4 7 -4 15 0 22
18 18 31 -7z m557 3 c3 -8 -1 -12 -9 -9 -7 2 -15 10 -17 17 -3 8 1 12 9 9 7
-2 15 -10 17 -17z m1533 -5 c-9 -11 -6 -18 16 -34 15 -11 25 -24 20 -28 -4 -4
-12 -3 -18 3 -6 6 -18 9 -25 6 -22 -8 -27 23 -8 52 9 14 19 23 22 21 3 -3 0
-12 -7 -20z m69 8 c0 -9 13 -21 28 -26 28 -11 29 -11 10 -30 -15 -15 -23 -17
-33 -8 -14 12 -26 80 -13 80 4 0 8 -7 8 -16z m454 -9 c-21 -19 -30 -22 -45
-14 -26 13 -13 32 16 25 13 -3 27 -2 30 4 3 5 11 10 16 10 6 0 -2 -11 -17 -25z
m1888 10 c0 -5 -5 -11 -11 -13 -6 -2 -11 4 -11 13 0 9 5 15 11 13 6 -2 11 -8
11 -13z m878 0 c0 -8 -7 -15 -15 -15 -16 0 -20 12 -8 23 11 12 23 8 23 -8z
m-4457 -10 c-4 -15 -36 -12 -41 3 -3 9 3 13 19 10 13 -1 23 -7 22 -13z m1347
0 c-1 -6 -10 -13 -20 -17 -18 -6 -18 -5 -7 12 12 20 30 23 27 5z m1810 -28 c0
-20 -25 1 -28 24 -2 23 -2 23 13 5 8 -11 15 -24 15 -29z m-3422 15 c2 -7 -3
-12 -12 -12 -9 0 -16 7 -16 16 0 17 22 14 28 -4z m-843 -12 c-3 -5 -11 -10
-16 -10 -6 0 -7 5 -4 10 3 6 11 10 16 10 6 0 7 -4 4 -10z m2165 -5 c-7 -8 -17
-15 -22 -15 -6 0 -5 7 2 15 7 8 17 15 22 15 6 0 5 -7 -2 -15z m-242 -33 c2 -7
-3 -12 -12 -12 -9 0 -16 7 -16 16 0 17 22 14 28 -4z m-1454 -1 c8 -12 -21 -34
-33 -27 -6 4 -8 13 -4 21 6 17 29 20 37 6z m125 -12 c-10 -20 -9 -21 15 -15
14 3 26 4 26 2 0 -2 2 -10 5 -18 7 -16 -73 -21 -92 -6 -19 15 -17 49 2 42 8
-4 15 -1 15 5 0 6 9 11 20 11 18 0 19 -3 9 -21z m1631 11 c0 -5 -4 -10 -10
-10 -5 0 -10 5 -10 10 0 6 5 10 10 10 6 0 10 -4 10 -10z m-202 -16 c12 -8 19
-20 16 -26 -4 -7 -10 -5 -16 6 -5 9 -16 16 -23 16 -8 0 -15 5 -15 10 0 14 12
12 38 -6z m250 -8 c3 -12 -1 -17 -10 -14 -7 3 -15 13 -16 22 -3 12 1 17 10 14
7 -3 15 -13 16 -22z m-2338 -2 c0 -8 -5 -12 -10 -9 -6 4 -8 11 -5 16 9 14 15
11 15 -7z m2630 -15 c0 -11 -7 -22 -15 -26 -23 -8 -26 0 -13 29 14 29 28 27
28 -3z m-2090 -9 c0 -5 -4 -10 -10 -10 -5 0 -10 5 -10 10 0 6 5 10 10 10 6 0
10 -4 10 -10z m1610 -11 c0 -5 -7 -9 -15 -9 -15 0 -20 12 -9 23 8 8 24 -1 24
-14z m3213 -10 c-17 -34 -31 -45 -44 -32 -15 15 11 58 36 59 21 2 22 0 8 -27z
m-3583 -29 c8 -5 12 -11 9 -14 -7 -8 -49 5 -49 15 0 12 21 11 40 -1z m226 -11
c3 -5 -1 -9 -10 -9 -21 0 -46 11 -46 20 0 10 49 0 56 -11z m444 11 c0 -5 -7
-10 -15 -10 -8 0 -15 5 -15 10 0 6 7 10 15 10 8 0 15 -4 15 -10z m-87 -45 c0
-6 -7 -11 -16 -13 -12 -3 -15 1 -11 13 7 17 25 17 27 0z m-813 -5 c0 -5 -2
-10 -4 -10 -3 0 -8 5 -11 10 -3 6 -1 10 4 10 6 0 11 -4 11 -10z m238 -2 c-6
-18 -28 -21 -28 -4 0 9 7 16 16 16 9 0 14 -5 12 -12z m62 -23 c0 -8 -4 -15
-10 -15 -5 0 -10 7 -10 15 0 8 5 15 10 15 6 0 10 -7 10 -15z m3560 -9 c0 -22
22 -31 32 -13 10 20 66 13 85 -10 7 -10 19 -12 33 -8 16 5 21 3 18 -6 -3 -8
-18 -15 -34 -17 -16 -2 -33 -8 -38 -13 -17 -16 -82 -10 -98 9 -19 22 -30 51
-22 63 8 14 24 11 24 -5z m-3640 -33 c0 -19 -20 -16 -36 5 -20 26 -17 33 11
20 14 -6 25 -17 25 -25z m3590 6 c0 -5 -7 -9 -15 -9 -15 0 -20 12 -9 23 8 8
24 -1 24 -14z m-3905 -9 c3 -5 -1 -10 -10 -10 -9 0 -13 5 -10 10 3 6 8 10 10
10 2 0 7 -4 10 -10z m-1652 -20 c11 -13 13 -20 4 -20 -21 0 -40 17 -33 29 9
14 9 14 29 -9z m2647 4 c0 -9 -5 -14 -12 -12 -18 6 -21 28 -4 28 9 0 16 -7 16
-16z m1910 -37 c0 -11 12 -35 26 -54 20 -26 25 -43 22 -76 -3 -39 -1 -42 25
-45 19 -2 27 1 27 12 0 9 4 16 9 16 5 0 17 3 26 6 14 6 15 4 7 -12 -6 -10 -13
-27 -16 -37 -3 -10 -11 -15 -16 -12 -7 4 -9 -2 -5 -17 3 -13 -1 -37 -9 -53 -9
-17 -16 -36 -16 -43 0 -42 -67 -91 -85 -62 -11 18 -21 11 -41 -27 -55 -108
-135 -215 -150 -200 -2 2 14 39 35 83 76 155 82 172 83 242 1 37 -3 88 -9 114
-8 38 -8 50 3 59 7 6 18 8 23 5 24 -15 21 18 -4 44 -24 25 -26 32 -15 45 7 8
19 15 26 15 8 0 14 11 14 27 0 25 0 26 20 8 11 -10 20 -27 20 -38z m-1755 23
c3 -5 -1 -10 -10 -10 -9 0 -13 5 -10 10 3 6 8 10 10 10 2 0 7 -4 10 -10z
m-275 -10 c0 -5 -4 -10 -10 -10 -5 0 -10 5 -10 10 0 6 5 10 10 10 6 0 10 -4
10 -10z m3019 -9 c9 -6 10 -10 2 -16 -16 -9 -44 2 -36 15 8 12 16 12 34 1z
m-5008 -24 c-13 -13 -26 -3 -16 12 3 6 11 8 17 5 6 -4 6 -10 -1 -17z m5062 -9
c-13 -12 -25 -19 -29 -15 -10 10 16 37 34 37 13 0 12 -4 -5 -22z m-5528 -28
c3 -5 1 -10 -4 -10 -6 0 -11 5 -11 10 0 6 2 10 4 10 3 0 8 -4 11 -10z m1685
-18 c0 -5 -11 -14 -25 -20 -20 -9 -25 -9 -25 2 0 14 14 24 38 25 6 1 12 -3 12
-7z m5300 -12 c0 -5 -5 -10 -11 -10 -5 0 -7 5 -4 10 3 6 8 10 11 10 2 0 4 -4
4 -10z m-6974 -47 c-10 -10 -19 5 -10 18 6 11 8 11 12 0 2 -7 1 -15 -2 -18z
m2044 13 c0 -13 -28 -26 -57 -26 -21 0 -15 20 10 30 32 13 47 12 47 -4z m-675
-26 c3 -5 2 -10 -4 -10 -5 0 -13 5 -16 10 -3 6 -2 10 4 10 5 0 13 -4 16 -10z
m575 -11 c0 -5 -7 -9 -15 -9 -15 0 -20 12 -9 23 8 8 24 -1 24 -14z m-60 -10
c0 -16 -31 -22 -43 -10 -9 9 -9 14 2 20 16 10 41 4 41 -10z m3120 1 c8 -5 12
-12 9 -15 -8 -8 -39 5 -39 16 0 11 11 11 30 -1z m240 -10 c0 -5 -6 -10 -14
-10 -8 0 -18 5 -21 10 -3 6 3 10 14 10 12 0 21 -4 21 -10z m1341 -10 c5 0 9
-7 9 -15 0 -22 -28 -18 -41 7 -10 18 -9 20 6 15 9 -4 21 -7 26 -7z m-1051 -19
c0 -5 -9 -7 -20 -4 -11 3 -20 7 -20 9 0 2 9 4 20 4 11 0 20 -4 20 -9z m-490
-11 c0 -5 -5 -10 -11 -10 -5 0 -7 5 -4 10 3 6 8 10 11 10 2 0 4 -4 4 -10z
m-4920 -10 c0 -5 -7 -10 -16 -10 -8 0 -12 5 -9 10 3 6 10 10 16 10 5 0 9 -4 9
-10z m-70 -20 c0 -5 -2 -10 -4 -10 -3 0 -8 5 -11 10 -3 6 -1 10 4 10 6 0 11
-4 11 -10z m5290 -15 c7 -14 10 -28 7 -32 -4 -3 -7 1 -7 10 0 10 -7 17 -15 17
-8 0 -15 7 -15 15 0 23 15 18 30 -10z m1238 -26 c-5 -35 -28 -36 -28 -1 0 16
3 32 7 36 11 11 25 -10 21 -35z m-1153 21 c-3 -5 -13 -10 -21 -10 -8 0 -14 5
-14 10 0 6 9 10 21 10 11 0 17 -4 14 -10z m-1785 -29 c0 -13 -26 -32 -33 -24
-8 7 11 33 24 33 5 0 9 -4 9 -9z m1672 -103 c4 -68 3 -75 -10 -61 -15 15 -24
90 -15 131 9 41 21 9 25 -70z m122 71 c-3 -6 0 -15 7 -20 7 -4 10 -11 6 -15
-11 -11 -41 22 -33 35 4 6 12 11 17 11 6 0 7 -5 3 -11z m46 1 c0 -5 -7 -10
-15 -10 -8 0 -15 5 -15 10 0 6 7 10 15 10 8 0 15 -4 15 -10z m1450 7 c0 -1 4
-17 9 -35 9 -29 8 -31 -9 -22 -20 11 -33 37 -24 51 5 8 24 13 24 6z m-6815
-17 c-3 -5 -10 -10 -16 -10 -5 0 -9 5 -9 10 0 6 7 10 16 10 8 0 12 -4 9 -10z
m6770 0 c3 -5 -3 -10 -14 -10 -12 0 -21 5 -21 10 0 6 6 10 14 10 8 0 18 -4 21
-10z m-1936 -52 c1 -25 8 -46 17 -51 7 -4 14 -18 14 -31 0 -31 -50 -44 -57
-15 -6 21 -23 26 -23 7 0 -6 -2 -9 -5 -6 -13 12 8 38 26 33 25 -8 24 -1 -6 31
-14 15 -25 32 -25 38 0 6 5 3 11 -6 16 -29 29 -21 29 18 0 49 15 35 19 -18z
m195 -70 c8 -6 8 -8 -1 -8 -6 0 -15 4 -18 10 -4 6 -13 5 -26 -3 -16 -10 -21
-9 -29 3 -6 10 -2 19 17 31 16 11 21 19 13 24 -8 5 -8 11 2 22 11 14 14 10 21
-28 5 -24 14 -47 21 -51z m1269 32 c-6 -6 -43 38 -43 52 0 5 11 -4 24 -19 13
-15 22 -30 19 -33z m507 14 c0 -8 -4 -12 -10 -9 -5 3 -10 10 -10 16 0 5 5 9
10 9 6 0 10 -7 10 -16z m-1710 -30 c0 -8 -4 -14 -10 -14 -5 0 -10 -7 -10 -15
0 -8 6 -15 14 -15 26 0 37 -64 12 -73 -21 -8 -26 1 -20 37 5 28 4 29 -7 11
-17 -28 -51 -65 -61 -65 -4 0 -14 10 -22 23 -16 23 -11 67 6 67 6 0 7 -11 4
-25 -6 -23 -2 -27 22 -24 4 1 6 6 4 12 -4 14 19 59 35 70 7 4 13 15 13 23 0 8
5 12 10 9 6 -3 10 -13 10 -21z m50 -32 c0 -21 -4 -32 -9 -26 -12 13 -22 60
-14 67 12 13 23 -5 23 -41z m-250 23 c0 -8 -4 -15 -10 -15 -5 0 -10 7 -10 15
0 8 5 15 10 15 6 0 10 -7 10 -15z m368 8 c-2 -5 -10 -21 -17 -38 -24 -55 -28
-60 -49 -59 -12 0 -19 -3 -17 -7 9 -13 -31 -53 -44 -44 -9 5 -10 10 -2 18 6 6
11 21 11 34 0 14 6 23 15 23 8 0 15 4 15 9 0 5 14 11 30 15 17 3 30 9 29 13
-4 25 3 43 17 43 9 0 14 -3 12 -7z m133 -6 c9 -7 19 -24 22 -39 10 -39 41 -27
32 12 -3 16 -1 31 4 35 6 3 11 -2 11 -12 0 -11 5 -24 12 -31 9 -9 7 -16 -10
-32 -26 -25 -28 -40 -6 -40 12 0 15 -7 11 -26 -4 -24 -2 -25 31 -22 22 2 37
-2 40 -10 3 -9 -4 -11 -23 -8 -20 4 -33 -2 -52 -22 l-24 -27 4 30 c5 26 3 27
-8 12 -15 -20 -35 -22 -35 -3 0 7 9 16 20 19 22 6 37 34 25 45 -4 4 -10 1 -12
-5 -3 -7 -16 -13 -29 -13 -14 0 -27 -7 -31 -17 -5 -14 -8 -13 -15 6 -10 29 -1
46 17 31 21 -17 37 -3 25 20 -5 10 -10 28 -10 40 0 16 -4 20 -19 15 -14 -4
-21 1 -29 25 -10 27 -9 30 11 30 12 0 29 -6 38 -13z m-2901 -29 c0 -6 -6 -5
-15 2 -8 7 -15 14 -15 16 0 2 7 1 15 -2 8 -4 15 -11 15 -16z m1910 12 c0 -5 7
-10 15 -10 21 0 30 -27 15 -45 -7 -8 -23 -15 -36 -15 -25 0 -29 14 -18 58 6
22 24 31 24 12z m540 -9 c0 -5 -8 -11 -17 -15 -10 -3 -25 -9 -33 -12 -8 -3 -4
4 10 15 27 22 40 26 40 12z m-2472 -19 c2 -7 -6 -12 -17 -12 -21 0 -27 11 -14
24 9 9 26 2 31 -12z m2802 -17 c17 -20 -18 -67 -53 -71 -34 -3 -35 4 -2 16 19
7 25 17 25 40 0 33 11 38 30 15z m-2910 -5 c0 -5 -4 -10 -10 -10 -5 0 -10 5
-10 10 0 6 5 10 10 10 6 0 10 -4 10 -10z m2980 3 c-1 -14 -50 -68 -50 -56 0 6
5 15 10 18 6 3 10 15 10 26 0 10 7 19 15 19 8 0 15 -3 15 -7z m248 -33 c13
-22 -25 -24 -55 -5 -12 8 -29 12 -37 9 -9 -3 -16 -1 -16 5 0 18 96 10 108 -9z
m-914 -27 c-11 -12 -18 -13 -27 -4 -8 8 -7 11 6 11 9 0 17 5 17 11 0 5 5 7 10
4 6 -4 4 -12 -6 -22z m851 7 c3 -5 1 -10 -4 -10 -6 0 -11 5 -11 10 0 6 2 10 4
10 3 0 8 -4 11 -10z m-1317 -135 c81 -74 92 -97 92 -185 0 -71 -16 -128 -46
-162 -15 -15 -14 -21 1 -67 18 -54 14 -101 -10 -121 -16 -14 -95 6 -108 27 -6
9 -24 13 -53 12 -24 -2 -46 0 -50 3 -3 4 16 18 43 32 56 28 87 67 78 97 -5 13
1 25 17 39 21 17 22 20 7 35 -19 20 -78 28 -95 14 -9 -7 -19 -7 -33 1 -14 7
-27 7 -39 1 -27 -14 -212 12 -212 30 0 15 45 21 74 10 33 -13 96 -14 114 -2 8
5 12 21 10 37 -3 26 -6 29 -32 26 -28 -4 -29 -3 -21 30 4 18 10 53 14 78 6 42
10 47 91 102 73 50 86 55 90 39 3 -10 33 -44 68 -76z m882 85 c0 -5 -4 -10
-10 -10 -5 0 -10 5 -10 10 0 6 5 10 10 10 6 0 10 -4 10 -10z m210 -10 c0 -5
-7 -10 -16 -10 -8 0 -12 5 -9 10 3 6 10 10 16 10 5 0 9 -4 9 -10z m-250 -4 c0
-2 -3 -11 -6 -20 -9 -23 -24 -20 -24 4 0 11 7 20 15 20 8 0 15 -2 15 -4z
m-5226 -22 c22 -8 20 -21 -4 -27 -15 -4 -20 0 -20 14 0 21 1 22 24 13z m5475
-36 c-1 -18 -3 -25 -6 -15 -2 9 -9 17 -14 17 -5 0 -9 7 -9 15 0 8 7 15 15 15
10 0 15 -10 14 -32z m121 28 c0 -3 -4 -8 -10 -11 -5 -3 -10 -1 -10 4 0 6 5 11
10 11 6 0 10 -2 10 -4z m136 -4 c13 -8 17 -72 4 -72 -5 0 -12 5 -15 10 -12 19
-25 10 -25 -16 0 -19 4 -25 15 -20 19 7 55 -14 55 -31 0 -7 -4 -13 -10 -13 -5
0 -12 -11 -16 -26 -4 -15 -12 -24 -22 -22 -21 4 -27 28 -7 28 9 0 14 4 11 9
-4 5 0 11 6 14 7 2 10 8 6 12 -4 4 -21 2 -37 -4 -23 -10 -33 -10 -50 1 -21 13
-29 48 -11 48 6 0 10 -9 10 -20 0 -12 7 -20 16 -20 12 0 15 7 11 28 -13 62 23
119 59 94z m-3402 -34 c-4 -6 -10 -5 -15 3 -14 22 -10 33 6 19 8 -7 12 -17 9
-22z m226 13 c0 -4 -3 -11 -7 -15 -4 -3 -7 -21 -7 -39 -1 -22 -6 -33 -18 -35
-14 -3 -18 3 -18 27 0 21 -5 31 -15 31 -23 0 -18 26 7 37 23 10 58 6 58 -6z
m828 -19 c39 -45 69 -105 75 -147 l6 -40 -19 39 c-25 49 -40 67 -52 60 -5 -3
-15 -1 -22 5 -20 16 -40 -12 -32 -44 4 -16 1 -31 -7 -39 -20 -21 -91 28 -107
74 -7 19 -15 41 -18 49 -3 8 11 2 31 -13 40 -31 46 -29 21 10 -20 30 -13 40
15 23 29 -19 35 -6 16 31 l-17 32 44 -7 c29 -4 51 -15 66 -33z m1925 1 c14 1
23 -4 25 -16 3 -15 -2 -18 -25 -15 -23 2 -28 8 -30 33 -1 17 1 22 3 13 3 -11
14 -17 27 -15z m247 17 c0 -5 -4 -10 -9 -10 -6 0 -13 5 -16 10 -3 6 1 10 9 10
9 0 16 -4 16 -10z m-2550 -12 c0 -19 -18 -43 -25 -36 -4 3 -2 16 5 27 12 24
20 27 20 9z m-3034 -25 c-10 -10 -19 5 -10 18 6 11 8 11 12 0 2 -7 1 -15 -2
-18z m160 1 c-2 -6 1 -17 7 -23 16 -16 0 -13 -28 5 -32 21 -32 32 0 30 14 0
23 -6 21 -12z m4477 -24 c19 -16 40 -30 46 -30 6 0 11 -5 11 -10 0 -14 -70 23
-94 49 -29 32 -1 25 37 -9z m1010 10 c-3 -11 -14 -20 -25 -20 -16 0 -17 3 -8
20 6 11 17 20 24 20 9 0 12 -7 9 -20z m227 -5 c0 -8 -4 -15 -10 -15 -5 0 -10
7 -10 15 0 8 5 15 10 15 6 0 10 -7 10 -15z m-5843 -17 c-3 -8 -6 -5 -6 6 -1
11 2 17 5 13 3 -3 4 -12 1 -19z m5843 -27 c0 -12 -20 -25 -27 -18 -7 7 6 27
18 27 5 0 9 -4 9 -9z m-5545 -27 c-23 -17 -32 -10 -15 11 7 8 17 12 23 8 6 -4
3 -11 -8 -19z m4592 9 c12 -11 27 -48 37 -92 10 -41 23 -86 31 -100 46 -90 54
-194 14 -184 -17 5 -19 -1 -19 -48 0 -29 -7 -79 -16 -111 -15 -53 -15 -62 -1
-98 8 -22 12 -40 7 -40 -17 0 -38 78 -38 140 0 74 -7 135 -22 199 -6 24 -11
62 -10 85 0 22 -3 67 -6 99 -4 34 -2 57 4 57 12 0 4 71 -9 85 -26 26 -1 33 28
8z m1003 7 c0 -5 -5 -10 -11 -10 -5 0 -7 5 -4 10 3 6 8 10 11 10 2 0 4 -4 4
-10z m-305 -25 c-31 -25 -46 -27 -53 -7 -2 7 5 12 17 12 11 0 23 5 26 10 3 6
14 10 23 10 12 0 9 -7 -13 -25z m380 15 c-3 -5 -17 -10 -31 -10 -13 0 -24 5
-24 10 0 6 14 10 31 10 17 0 28 -4 24 -10z m-165 -8 c0 -14 -36 -43 -43 -35
-4 3 0 15 10 25 17 19 33 24 33 10z m-159 -33 c-15 -12 -28 -16 -34 -10 -15
15 2 31 31 31 l27 -1 -24 -20z m-5511 6 c0 -2 -9 -9 -20 -15 -16 -9 -20 -8
-20 5 0 8 9 15 20 15 11 0 20 -2 20 -5z m2285 -4 c3 -5 1 -12 -5 -16 -5 -3
-10 1 -10 9 0 18 6 21 15 7z m68 -18 c-7 -3 -13 -11 -13 -19 0 -8 -6 -14 -13
-14 -8 0 -14 7 -14 15 0 8 4 12 8 10 3 -3 12 2 19 10 7 9 16 13 19 9 3 -4 0
-9 -6 -11z m3162 -23 c3 -5 1 -10 -4 -10 -6 0 -11 5 -11 10 0 6 2 10 4 10 3 0
8 -4 11 -10z m189 -15 c3 -9 0 -15 -9 -15 -25 0 -17 -19 10 -26 33 -8 32 -16
-7 -39 -18 -10 -27 -20 -20 -23 7 -2 12 -8 12 -14 0 -6 -9 -3 -20 7 -15 14
-17 21 -9 32 7 8 8 13 1 13 -5 0 -17 -10 -25 -22 l-16 -23 -16 23 c-9 12 -25
31 -35 40 -12 11 -16 22 -11 31 10 16 31 6 31 -13 0 -8 6 -19 14 -25 12 -10
19 -8 35 8 12 12 21 25 21 29 0 10 21 32 31 32 4 0 9 -7 13 -15z m-74 -17 c0
-6 -6 -5 -15 2 -8 7 -15 14 -15 16 0 2 7 1 15 -2 8 -4 15 -11 15 -16z m130 2
c0 -5 -5 -10 -11 -10 -5 0 -7 5 -4 10 3 6 8 10 11 10 2 0 4 -4 4 -10z m-5775
-30 c3 -5 -1 -10 -10 -10 -9 0 -13 5 -10 10 3 6 8 10 10 10 2 0 7 -4 10 -10z
m3168 -46 c49 -43 80 -134 85 -252 4 -92 1 -113 -22 -185 -30 -92 -64 -158
-85 -165 -11 -4 -12 0 -6 14 23 51 11 245 -17 281 -14 17 -1 33 26 33 22 0 23
2 13 50 -7 36 -19 59 -44 82 -19 18 -43 46 -55 61 -19 27 -19 29 -3 48 10 10
25 19 33 19 8 0 12 6 9 14 -13 34 28 34 66 0z m-993 2 c0 -3 -4 -8 -10 -11 -5
-3 -10 -1 -10 4 0 6 5 11 10 11 6 0 10 -2 10 -4z m35 -6 c3 -5 1 -10 -4 -10
-6 0 -11 5 -11 10 0 6 2 10 4 10 3 0 8 -4 11 -10z m36 -43 c-8 -8 -11 -4 -11
14 0 33 14 47 18 19 2 -12 -1 -27 -7 -33z m3214 44 c3 -5 1 -12 -5 -16 -5 -3
-10 1 -10 9 0 18 6 21 15 7z m-3168 -38 c-3 -10 -5 -4 -5 12 0 17 2 24 5 18 2
-7 2 -21 0 -30z m-167 -3 c0 -5 -4 -10 -10 -10 -5 0 -10 5 -10 10 0 6 5 10 10
10 6 0 10 -4 10 -10z m40 0 c0 -5 -5 -10 -11 -10 -5 0 -7 5 -4 10 3 6 8 10 11
10 2 0 4 -4 4 -10z m-1633 -6 c-3 -3 -12 -4 -19 -1 -8 3 -5 6 6 6 11 1 17 -2
13 -5z m4988 -23 c-3 -6 -11 -11 -17 -11 -6 0 -6 6 2 15 14 17 26 13 15 -4z
m90 -11 c-3 -5 -10 -10 -16 -10 -5 0 -9 5 -9 10 0 6 7 10 16 10 8 0 12 -4 9
-10z m-3558 -36 c-3 -3 -12 -4 -19 -1 -8 3 -5 6 6 6 11 1 17 -2 13 -5z m2897
-19 c11 -8 28 -13 37 -10 22 7 33 -9 15 -24 -10 -8 -21 -7 -42 4 -16 8 -35 15
-41 15 -7 0 -13 7 -13 15 0 19 19 19 44 0z m602 0 c18 -15 18 -15 -5 -13 -14
2 -26 9 -29 16 -5 17 10 15 34 -3z m-18 -33 c2 -7 -1 -12 -7 -12 -19 0 -12
-20 7 -20 21 -1 58 -27 50 -36 -17 -16 -108 44 -108 72 0 18 52 14 58 -4z
m-588 -18 l25 -15 -25 7 c-14 3 -29 10 -34 15 -16 14 6 10 34 -7z m1457 10
c-3 -3 -12 -4 -19 -1 -8 3 -5 6 6 6 11 1 17 -2 13 -5z m-237 -68 c0 -15 -18
-31 -26 -23 -7 7 7 37 17 37 5 0 9 -6 9 -14z m320 -1 c0 -9 7 -18 15 -21 24
-9 17 -24 -10 -24 -21 0 -25 5 -25 30 0 17 5 30 10 30 6 0 10 -7 10 -15z
m-980 -5 c0 -5 -2 -10 -4 -10 -3 0 -8 5 -11 10 -3 6 -1 10 4 10 6 0 11 -4 11
-10z m1078 -9 c3 -8 -1 -12 -9 -9 -7 2 -15 10 -17 17 -3 8 1 12 9 9 7 -2 15
-10 17 -17z m-1842 -14 c2 -7 -11 -51 -29 -97 -19 -47 -44 -128 -57 -180 -46
-190 -45 -187 -48 -86 -2 50 1 92 7 95 5 4 15 29 22 56 7 28 29 85 51 128 21
42 34 77 28 77 -5 0 -10 5 -10 10 0 15 30 12 36 -3z m-476 -21 c0 -8 -4 -18
-10 -21 -5 -3 -10 3 -10 14 0 12 5 21 10 21 6 0 10 -6 10 -14z m820 -61 c0 -8
-7 -15 -15 -15 -8 0 -15 7 -15 15 0 8 7 15 15 15 8 0 15 -7 15 -15z m1300 5
c0 -5 -2 -10 -4 -10 -3 0 -8 5 -11 10 -3 6 -1 10 4 10 6 0 11 -4 11 -10z
m-2145 -38 c0 -31 -19 -28 -23 4 -3 18 0 25 10 22 7 -3 13 -14 13 -26z m-749
-5 c6 -12 27 -53 47 -92 57 -111 88 -177 84 -182 -3 -2 -11 7 -19 19 -17 28
-138 266 -138 273 0 13 16 2 26 -18z m2705 10 c-1 -12 -15 -9 -19 4 -3 6 1 10
8 8 6 -3 11 -8 11 -12z m-2076 -13 c16 -12 17 -16 6 -23 -20 -13 -41 -2 -41
20 0 23 8 23 35 3z m2465 -14 c0 -5 -9 -10 -20 -10 -11 0 -20 5 -20 10 0 6 9
10 20 10 11 0 20 -4 20 -10z m-3123 -62 c-3 -7 -5 -2 -5 12 0 14 2 19 5 13 2
-7 2 -19 0 -25z m763 -8 c0 -5 -2 -10 -4 -10 -3 0 -8 5 -11 10 -3 6 -1 10 4
10 6 0 11 -4 11 -10z m-705 -134 c37 -79 41 -91 25 -81 -15 9 -75 155 -65 155
3 0 21 -33 40 -74z m65 -146 c0 -8 -7 -2 -15 14 -19 36 -19 45 0 20 8 -10 14
-26 15 -34z m-122 -292 c51 -12 46 -31 -6 -22 -45 8 -72 21 -72 35 0 7 7 8 18
4 9 -4 36 -12 60 -17z m1302 -338 c2 -194 -18 -578 -30 -598 -6 -11 -9 43 -7
163 2 174 1 182 -23 230 -26 53 -33 136 -13 156 12 12 16 4 28 -58 16 -78 25
-36 25 113 0 103 3 155 10 148 5 -5 10 -75 10 -154z m-4290 -121 c0 -5 -7 -9
-15 -9 -15 0 -20 12 -9 23 8 8 24 -1 24 -14z m4223 -246 c2 -29 0 -50 -5 -47
-4 3 -8 31 -7 62 1 66 6 60 12 -15z m210 4 c29 -12 31 -24 4 -41 -19 -12 -50
13 -81 66 l-20 32 35 -23 c19 -12 46 -28 62 -34z m-1783 -3 c0 -16 -12 -27
-42 -42 -45 -21 -65 -11 -29 14 12 8 21 20 21 26 0 6 8 20 17 30 19 21 33 9
33 -28z m1836 9 c-10 -10 -19 5 -10 18 6 11 8 11 12 0 2 -7 1 -15 -2 -18z
m-1765 -26 c-8 -8 -11 -7 -11 4 0 20 13 34 18 19 3 -7 -1 -17 -7 -23z m1517
-154 c20 -137 25 -203 15 -203 -18 0 -32 61 -39 173 -8 140 6 158 24 30z
m-1790 -35 c15 -15 16 -108 1 -145 -11 -26 -13 -24 -26 50 -18 95 -9 129 25
95z m2142 -248 c0 -5 -4 -10 -10 -10 -5 0 -10 5 -10 10 0 6 5 10 10 10 6 0 10
-4 10 -10z m-80 -28 c0 -17 -60 -92 -74 -92 -8 0 -23 15 -35 33 l-20 32 27 7
c15 5 32 6 39 4 6 -3 17 2 23 10 13 15 40 19 40 6z m-1605 -192 c-6 -38 -2
-49 51 -138 32 -53 66 -114 77 -135 23 -49 35 -192 25 -301 -10 -109 -37 -221
-51 -207 -5 5 -22 8 -36 5 -25 -5 -27 -2 -59 97 -18 56 -30 104 -28 106 3 3
16 -13 30 -35 46 -74 65 -70 35 7 -11 30 -17 56 -14 60 4 3 20 -11 37 -31 16
-21 34 -38 39 -38 13 0 0 135 -18 192 -8 26 -37 80 -64 120 -27 40 -49 77 -49
82 0 16 50 -36 86 -91 19 -29 37 -53 40 -53 8 0 -5 38 -32 94 -13 27 -21 53
-18 57 3 5 1 9 -4 9 -6 0 -13 11 -16 25 -4 14 -11 23 -16 20 -6 -3 -10 1 -10
10 0 9 -6 28 -14 43 -8 15 -16 53 -20 85 -5 53 -4 57 15 57 19 0 20 -4 14 -40z
m1222 -252 c-2 -29 -3 -6 -3 52 0 58 1 81 3 53 2 -29 2 -77 0 -105z m307 -263
c24 -26 41 -35 64 -35 18 0 32 -3 32 -7 -1 -18 -52 -64 -65 -60 -16 7 -85 106
-85 124 0 23 21 14 54 -22z m-3184 -135 c0 -5 -4 -10 -10 -10 -5 0 -10 5 -10
10 0 6 5 10 10 10 6 0 10 -4 10 -10z m1398 -44 c48 -18 104 -36 126 -40 21 -4
58 -17 82 -29 77 -37 45 -53 -35 -17 -24 11 -49 20 -56 20 -7 0 -26 7 -42 15
-33 17 -159 55 -183 55 -9 0 -20 -4 -25 -9 -14 -13 -45 -16 -83 -7 -48 11 -29
26 26 19 37 -4 51 -2 61 11 19 22 30 21 129 -18z m1742 14 c0 -5 -4 -10 -10
-10 -5 0 -10 5 -10 10 0 6 5 10 10 10 6 0 10 -4 10 -10z m-2980 -36 c8 -7 28
-37 45 -67 25 -47 27 -57 16 -71 -13 -15 -15 -15 -32 3 -11 11 -19 25 -19 31
0 13 -17 13 -25 0 -3 -5 -1 -10 4 -10 6 0 11 -4 11 -8 0 -5 -13 -7 -30 -4 -27
4 -30 8 -30 43 0 27 -4 39 -14 39 -24 0 -30 -39 -10 -61 16 -18 16 -19 -10
-19 -26 0 -26 1 -21 55 3 31 1 65 -5 76 -10 18 -8 19 47 13 32 -4 65 -12 73
-20z m1020 -60 c0 -8 18 -34 40 -57 36 -40 38 -45 23 -60 -23 -22 -1 -49 33
-41 17 5 24 2 24 -9 0 -10 6 -13 20 -10 29 8 31 14 14 63 -13 39 -11 130 3
130 3 0 19 -6 36 -14 18 -8 41 -17 52 -20 11 -3 4 -4 -15 -2 -19 3 -43 7 -52
11 -13 5 -18 2 -18 -9 0 -30 41 -124 80 -185 38 -58 80 -184 67 -198 -13 -12
-46 43 -47 75 0 20 -12 51 -30 77 -40 58 -55 66 -36 20 l16 -37 -23 16 c-34
25 -46 29 -64 20 -10 -4 -21 -6 -25 -6 -5 1 -8 -12 -8 -28 0 -17 -3 -30 -6
-30 -11 0 -44 42 -44 56 0 8 -9 28 -20 46 -11 18 -20 48 -20 66 0 18 -4 41 -9
50 -4 9 -11 39 -15 66 -5 42 -4 47 9 36 8 -7 15 -19 15 -26z m119 0 c8 -7 13
-16 10 -18 -7 -7 -77 18 -92 33 -17 18 63 3 82 -15z m1869 -39 c37 -37 44 -48
36 -65 -8 -19 -12 -17 -45 27 -35 48 -53 83 -43 83 3 0 27 -20 52 -45z m-3362
20 c9 -8 14 -22 12 -30 -3 -14 -6 -14 -25 0 -24 17 -31 45 -12 45 6 0 17 -7
25 -15z m1232 -12 c6 -16 14 -41 18 -58 5 -25 1 -22 -20 17 -14 26 -26 52 -26
58 0 20 18 9 28 -17z m-1176 -50 c-7 -34 -9 -36 -19 -18 -13 27 4 98 18 73 5
-9 6 -33 1 -55z m1704 -8 c24 -22 54 -59 67 -83 l24 -42 -31 -63 -31 -62 -3
34 c-2 24 1 37 12 43 17 10 22 58 7 58 -5 0 -12 13 -16 30 -3 16 -24 51 -46
79 -21 27 -39 55 -38 62 0 10 2 10 6 -1 3 -8 25 -33 49 -55z m1544 -37 c0 -13
-12 -9 -26 10 -7 9 -13 24 -13 32 -1 10 6 6 19 -10 11 -14 20 -28 20 -32z
m-2898 -60 c-6 -6 -16 -7 -22 -3 -9 6 -9 9 1 16 17 10 34 0 21 -13z m1346 -88
c-2 -59 -8 -93 -17 -102 -12 -11 -13 -10 -7 5 3 10 6 57 6 103 0 54 4 84 11
84 7 0 10 -29 7 -90z m-1404 64 c4 -9 2 -13 -5 -8 -6 4 -15 0 -20 -7 -7 -11
-13 -10 -31 9 l-22 22 36 0 c23 0 38 -5 42 -16z m48 -41 c10 -9 18 -24 18 -33
0 -10 9 -20 19 -23 15 -4 52 -65 89 -149 6 -13 -37 -9 -45 5 -4 6 -17 17 -28
23 -14 8 -19 20 -17 39 2 18 -1 25 -9 20 -7 -5 -9 -1 -5 12 9 28 -3 53 -25 53
-26 0 -89 32 -83 42 3 4 14 8 25 8 10 0 19 5 19 10 0 15 21 12 42 -7z m2555
-90 c21 -18 48 -42 61 -53 12 -11 27 -20 32 -20 25 0 2 -50 -34 -73 -21 -14
-28 -15 -50 -3 -42 22 -62 56 -64 111 -1 28 -4 73 -7 100 l-5 50 14 -40 c9
-22 32 -55 53 -72z m270 -29 c-3 -3 -12 -4 -19 -1 -8 3 -5 6 6 6 11 1 17 -2
13 -5z m-3003 -59 c23 -34 20 -38 -9 -11 -26 24 -31 36 -16 36 5 0 16 -11 25
-25z m1303 -57 c-3 -20 -4 -21 -11 -5 -5 9 -5 29 0 45 7 25 8 26 11 5 3 -13 3
-33 0 -45z m-992 3 c3 -5 1 -12 -5 -16 -5 -3 -10 1 -10 9 0 18 6 21 15 7z
m2307 -132 c-9 -28 -18 -46 -20 -41 -5 16 18 92 27 92 5 0 2 -23 -7 -51z m48
-34 c0 -8 -4 -15 -10 -15 -5 0 -10 7 -10 15 0 8 5 15 10 15 6 0 10 -7 10 -15z
m-2649 -76 c18 -34 5 -30 -25 7 -24 30 -25 34 -7 25 11 -6 26 -21 32 -32z
m2582 -17 c9 -19 8 -29 -3 -49 -22 -39 -40 -40 -40 -4 0 39 24 119 28 94 2
-10 8 -28 15 -41z"/>
<path d="M4652 4780 c-14 -23 -15 -30 -3 -30 8 0 24 41 18 47 -2 1 -8 -7 -15
-17z"/>
<path d="M4379 4343 c-5 -15 -13 -62 -16 -105 -4 -57 -11 -82 -24 -94 -25 -22
-24 -34 2 -34 48 0 135 79 144 133 5 28 -1 39 -38 80 -25 26 -47 47 -51 47 -4
0 -11 -12 -17 -27z"/>
<path d="M5795 4350 c-3 -5 -1 -10 4 -10 6 0 11 5 11 10 0 6 -2 10 -4 10 -3 0
-8 -4 -11 -10z"/>
<path d="M2500 6119 c12 -22 35 -21 35 1 0 7 -10 15 -23 16 -20 4 -21 2 -12
-17z"/>
<path d="M2534 6062 c4 -42 21 -82 37 -82 5 0 15 14 20 30 6 17 17 30 25 30 8
0 14 7 14 15 0 26 -37 17 -44 -10 -8 -32 -26 -33 -26 -1 0 13 -3 31 -6 40 -11
29 -22 16 -20 -22z"/>
<path d="M2005 6080 c-19 -7 -18 -8 6 -18 15 -6 29 -18 32 -26 6 -16 27 -23
27 -8 -1 4 -11 19 -23 33 -17 20 -27 25 -42 19z"/>
<path d="M1765 6000 c4 -6 11 -8 16 -5 14 9 11 15 -7 15 -8 0 -12 -5 -9 -10z"/>
<path d="M2544 5954 c11 -25 40 -32 51 -13 9 13 4 18 -32 28 -29 8 -30 8 -19
-15z"/>
<path d="M1662 5949 c2 -6 8 -10 13 -10 5 0 11 4 13 10 2 6 -4 11 -13 11 -9 0
-15 -5 -13 -11z"/>
<path d="M2630 5936 c-6 -9 -10 -21 -8 -28 3 -8 9 -4 17 10 15 28 9 39 -9 18z"/>
<path d="M1605 5900 c3 -5 10 -10 16 -10 5 0 9 5 9 10 0 6 -7 10 -16 10 -8 0
-12 -4 -9 -10z"/>
<path d="M3858 5764 c-5 -4 -8 -19 -8 -33 0 -18 3 -22 11 -14 6 6 9 21 7 33
-1 12 -6 18 -10 14z"/>
<path d="M1405 5720 c3 -5 8 -10 11 -10 2 0 4 5 4 10 0 6 -5 10 -11 10 -5 0
-7 -4 -4 -10z"/>
<path d="M0 5660 c0 -14 30 -27 84 -34 41 -6 51 -5 67 13 26 28 8 36 -46 21
-32 -9 -52 -9 -74 -2 -18 6 -31 7 -31 2z"/>
<path d="M483 5635 c-7 -8 -13 -18 -13 -24 0 -9 58 -19 133 -23 33 -2 39 -6
44 -30 3 -15 9 -28 13 -28 9 0 24 29 25 50 0 9 9 15 22 14 18 0 20 2 11 13
-21 26 -48 35 -64 22 -8 -6 -14 -7 -14 -2 0 5 -26 7 -59 5 -36 -3 -61 0 -65 7
-9 14 -18 13 -33 -4z"/>
<path d="M6716 5612 c-3 -6 -21 -10 -38 -10 -18 0 -44 -5 -58 -11 l-25 -10 26
0 c17 -1 30 -10 39 -26 7 -13 17 -22 22 -19 4 3 5 10 2 16 -4 6 6 21 22 33 16
13 26 26 23 30 -4 3 -10 2 -13 -3z"/>
<path d="M805 5600 c-4 -7 -16 -10 -26 -7 -11 3 -19 1 -19 -5 0 -5 17 -8 38
-6 20 2 36 7 35 13 -2 14 -20 18 -28 5z"/>
<path d="M1120 5572 c0 -12 19 -26 26 -19 2 2 -2 10 -11 17 -9 8 -15 8 -15 2z"/>
<path d="M490 5550 c0 -5 5 -10 10 -10 6 0 10 5 10 10 0 6 -4 10 -10 10 -5 0
-10 -4 -10 -10z"/>
<path d="M721 5544 c0 -11 3 -14 6 -6 3 7 2 16 -1 19 -3 4 -6 -2 -5 -13z"/>
<path d="M525 5540 c-3 -5 1 -10 9 -10 9 0 16 5 16 10 0 6 -4 10 -9 10 -6 0
-13 -4 -16 -10z"/>
<path d="M796 5543 c-20 -3 -25 -7 -17 -13 16 -9 51 -1 51 11 0 5 -1 8 -2 8
-2 -1 -16 -4 -32 -6z"/>
<path d="M600 5536 c0 -9 30 -14 35 -6 4 6 -3 10 -14 10 -12 0 -21 -2 -21 -4z"/>
<path d="M3057 5505 c-4 -8 -2 -17 3 -20 6 -4 10 -4 10 -1 0 2 3 11 6 20 3 9
2 16 -4 16 -5 0 -12 -7 -15 -15z"/>
<path d="M566 5485 c-3 -9 0 -15 9 -15 8 0 15 7 15 15 0 8 -4 15 -9 15 -5 0
-11 -7 -15 -15z"/>
<path d="M1010 5484 c0 -8 5 -12 10 -9 6 4 8 11 5 16 -9 14 -15 11 -15 -7z"/>
<path d="M750 5474 c0 -17 22 -14 28 4 2 7 -3 12 -12 12 -9 0 -16 -7 -16 -16z"/>
<path d="M4840 5299 c0 -5 5 -7 10 -4 6 3 10 8 10 11 0 2 -4 4 -10 4 -5 0 -10
-5 -10 -11z"/>
<path d="M6770 5266 c0 -2 9 -6 20 -9 11 -3 20 -1 20 4 0 5 -9 9 -20 9 -11 0
-20 -2 -20 -4z"/>
<path d="M6790 5210 c0 -5 5 -10 10 -10 6 0 10 5 10 10 0 6 -4 10 -10 10 -5 0
-10 -4 -10 -10z"/>
<path d="M6850 5170 c0 -5 20 -10 45 -10 25 0 45 5 45 10 0 6 -20 10 -45 10
-25 0 -45 -4 -45 -10z"/>
<path d="M6790 5155 c12 -15 30 -12 30 6 0 5 -10 9 -21 9 -18 0 -19 -2 -9 -15z"/>
<path d="M7046 5124 c-26 -26 -38 -53 -31 -74 7 -23 45 -27 45 -5 0 8 -4 15
-10 15 -5 0 -10 9 -10 20 0 13 7 20 20 20 11 0 20 6 20 14 0 23 -17 28 -34 10z"/>
<path d="M7088 5092 c-16 -3 -17 -6 -3 -33 20 -38 65 -42 65 -5 0 33 -23 47
-62 38z"/>
<path d="M0 4010 c0 -6 7 -10 15 -10 8 0 15 2 15 4 0 2 -7 6 -15 10 -8 3 -15
1 -15 -4z"/>
<path d="M70 4010 c0 -5 15 -10 33 -9 27 0 29 2 12 9 -28 12 -45 12 -45 0z"/>
<path d="M1090 3940 c0 -5 5 -10 10 -10 6 0 10 5 10 10 0 6 -4 10 -10 10 -5 0
-10 -4 -10 -10z"/>
<path d="M940 3932 c0 -14 43 -23 54 -12 7 7 4 10 -6 10 -9 0 -23 3 -32 6 -9
3 -16 2 -16 -4z"/>
<path d="M541 3911 c-10 -6 -10 -10 -1 -16 13 -8 24 -1 19 14 -3 6 -10 7 -18
2z"/>
<path d="M1300 3905 c33 -19 49 -19 24 0 -10 8 -26 14 -34 14 -9 0 -4 -6 10
-14z"/>
<path d="M1718 3894 c-15 -15 -7 -22 31 -29 48 -8 136 4 123 17 -12 12 -145
23 -154 12z"/>
<path d="M2134 3849 c-4 -6 -19 -9 -36 -5 -18 3 -27 2 -23 -4 3 -6 26 -10 49
-10 28 0 52 -7 69 -20 25 -20 57 -27 57 -12 0 4 -16 19 -34 35 -36 28 -70 35
-82 16z"/>
<path d="M1900 3830 c36 -11 50 -11 50 0 0 6 -17 10 -37 9 -34 -1 -35 -2 -13
-9z"/>
<path d="M2095 3790 c-9 -15 -1 -23 21 -18 15 3 16 4 1 16 -11 9 -17 10 -22 2z"/>
<path d="M2315 3780 c3 -5 8 -10 11 -10 2 0 4 5 4 10 0 6 -5 10 -11 10 -5 0
-7 -4 -4 -10z"/>
<path d="M1702 3768 c3 -7 13 -15 22 -16 12 -3 17 1 14 10 -3 7 -13 15 -22 16
-12 3 -17 -1 -14 -10z"/>
<path d="M2195 3760 c-3 -5 3 -10 15 -10 12 0 18 5 15 10 -3 6 -10 10 -15 10
-5 0 -12 -4 -15 -10z"/>
<path d="M1208 3743 c-10 -2 -18 -9 -18 -14 0 -14 16 -11 30 6 7 8 11 14 9 14
-2 -1 -12 -3 -21 -6z"/>
<path d="M1409 3720 c23 -20 81 -28 81 -12 0 19 -27 32 -64 32 l-41 -1 24 -19z"/>
<path d="M2288 3733 c7 -3 16 -2 19 1 4 3 -2 6 -13 5 -11 0 -14 -3 -6 -6z"/>
<path d="M1730 3671 c0 -9 33 -21 58 -21 6 0 12 7 12 15 0 10 -11 15 -35 15
-19 0 -35 -4 -35 -9z"/>
<path d="M1860 3650 c0 -5 12 -10 26 -10 14 0 23 4 19 10 -3 6 -15 10 -26 10
-10 0 -19 -4 -19 -10z"/>
<path d="M5600 3649 c0 -5 5 -7 10 -4 6 3 10 8 10 11 0 2 -4 4 -10 4 -5 0 -10
-5 -10 -11z"/>
<path d="M5237 3644 c-12 -13 23 -35 44 -29 20 7 20 8 -6 21 -32 16 -30 16
-38 8z"/>
<path d="M2038 3633 c7 -3 16 -2 19 1 4 3 -2 6 -13 5 -11 0 -14 -3 -6 -6z"/>
<path d="M5363 3624 c-13 -9 -23 -19 -23 -23 0 -3 39 -6 87 -5 90 1 124 17 56
27 -21 3 -51 8 -68 11 -19 4 -38 0 -52 -10z"/>
<path d="M5785 3540 c3 -5 8 -10 11 -10 2 0 4 5 4 10 0 6 -5 10 -11 10 -5 0
-7 -4 -4 -10z"/>
<path d="M5430 3501 c0 -11 39 -25 47 -18 3 3 2 10 -2 16 -8 13 -45 15 -45 2z"/>
<path d="M5530 3500 c0 -5 9 -10 21 -10 11 0 17 5 14 10 -3 6 -13 10 -21 10
-8 0 -14 -4 -14 -10z"/>
<path d="M5590 3481 c0 -12 26 -21 61 -21 25 0 29 -3 24 -19 -7 -24 8 -30 102
-38 40 -3 76 -10 79 -14 8 -13 52 -11 60 2 9 16 84 4 127 -20 26 -14 52 -19
112 -18 81 2 87 -1 120 -58 8 -14 31 -19 110 -24 55 -4 110 -13 123 -20 12 -7
31 -9 42 -6 10 3 21 1 24 -4 4 -5 31 -15 61 -21 30 -6 68 -18 85 -26 17 -9 63
-16 106 -18 55 -1 80 -6 88 -18 11 -15 42 -24 121 -35 22 -3 48 -12 57 -20 9
-8 25 -13 35 -11 16 3 18 18 21 169 l2 167 -23 4 c-53 10 -266 1 -281 -12 -20
-16 -164 -5 -215 16 -23 9 -51 12 -88 7 -41 -4 -57 -2 -63 7 -6 9 -28 13 -69
12 -37 -1 -77 5 -101 14 -33 13 -59 15 -138 9 -53 -4 -169 -8 -257 -8 -88 -1
-164 -4 -170 -6 -5 -3 -34 1 -63 7 -63 14 -92 15 -92 3z"/>
<path d="M6535 3480 c3 -5 8 -10 11 -10 2 0 4 5 4 10 0 6 -5 10 -11 10 -5 0
-7 -4 -4 -10z"/>
<path d="M5260 3396 c0 -9 30 -14 35 -6 4 6 -3 10 -14 10 -12 0 -21 -2 -21 -4z"/>
<path d="M5947 3364 c-9 -9 23 -33 46 -34 9 0 17 7 17 15 0 8 -6 15 -14 15 -8
0 -21 2 -28 5 -8 3 -17 3 -21 -1z"/>
<path d="M6125 3310 c-3 -5 -2 -10 4 -10 5 0 13 5 16 10 3 6 2 10 -4 10 -5 0
-13 -4 -16 -10z"/>
<path d="M730 3241 c0 -5 9 -11 20 -14 13 -3 20 0 20 9 0 8 -9 14 -20 14 -11
0 -20 -4 -20 -9z"/>
<path d="M6455 3230 c3 -5 8 -10 11 -10 2 0 4 5 4 10 0 6 -5 10 -11 10 -5 0
-7 -4 -4 -10z"/>
<path d="M796 3122 c-11 -18 12 -33 45 -30 l34 3 -32 18 c-36 19 -40 20 -47 9z"/>
<path d="M6511 2851 c-12 -8 -9 -11 12 -17 30 -7 43 -1 32 15 -8 13 -25 14
-44 2z"/>
<path d="M20 2721 c8 -5 35 -13 61 -16 49 -7 114 -27 125 -38 10 -10 44 -9 44
1 0 5 -10 18 -23 30 -20 19 -39 23 -123 28 -68 4 -95 2 -84 -5z"/>
<path d="M334 2675 c-4 -10 -14 -13 -32 -8 -18 4 -23 3 -17 -6 4 -8 18 -11 34
-8 14 3 33 1 43 -4 9 -5 30 -6 48 -3 29 6 30 8 14 25 -21 23 -82 26 -90 4z"/>
<path d="M27 2622 c-20 -2 -27 -9 -27 -24 0 -18 5 -20 33 -15 18 3 58 -2 88
-10 64 -18 270 -38 295 -29 16 6 16 8 1 24 -12 11 -31 16 -62 14 -24 -1 -47 3
-50 8 -10 17 -25 11 -34 -12 -8 -21 -8 -21 -37 9 -27 29 -36 32 -104 35 -41 1
-87 2 -103 0z"/>
<path d="M450 2550 c0 -23 -3 -22 75 -25 l60 -3 -28 24 c-37 32 -107 34 -107
4z"/>
<path d="M72 2528 c3 -7 13 -15 24 -17 16 -3 17 -1 5 13 -16 19 -34 21 -29 4z"/>
<path d="M205 2510 c-3 -5 1 -13 10 -16 22 -9 29 1 11 15 -10 8 -16 9 -21 1z"/>
<path d="M396 2481 c-10 -16 22 -32 90 -47 40 -8 73 -10 82 -5 11 6 -1 12 -44
21 -32 6 -71 18 -86 26 -31 16 -35 17 -42 5z"/>
<path d="M5190 2441 c0 -11 5 -23 10 -26 6 -4 10 5 10 19 0 14 -4 26 -10 26
-5 0 -10 -9 -10 -19z"/>
<path d="M920 2410 c0 -5 12 -10 26 -10 14 0 23 4 19 10 -3 6 -15 10 -26 10
-10 0 -19 -4 -19 -10z"/>
<path d="M6432 2238 c2 -18 12 -24 43 -30 22 -4 52 -10 67 -13 24 -6 29 -3 38
20 6 15 8 31 4 36 -3 5 -39 9 -80 9 -72 0 -75 -1 -72 -22z"/>
<path d="M5955 2180 c-3 -5 1 -10 10 -10 9 0 13 5 10 10 -3 6 -8 10 -10 10 -2
0 -7 -4 -10 -10z"/>
<path d="M5650 2045 c13 -14 26 -23 28 -20 7 7 -29 45 -41 45 -6 0 0 -11 13
-25z"/>
<path d="M5862 1993 c-21 -8 -2 -23 31 -23 30 1 31 1 13 15 -21 16 -24 16 -44
8z"/>
<path d="M6884 1989 c-9 -16 1 -21 38 -17 l33 3 -32 12 c-22 8 -35 8 -39 2z"/>
<path d="M35 1980 c4 -6 11 -8 16 -5 14 9 11 15 -7 15 -8 0 -12 -5 -9 -10z"/>
<path d="M6130 1920 c0 -5 4 -10 9 -10 6 0 13 5 16 10 3 6 -1 10 -9 10 -9 0
-16 -4 -16 -10z"/>
<path d="M6730 1909 c0 -5 5 -7 10 -4 6 3 10 8 10 11 0 2 -4 4 -10 4 -5 0 -10
-5 -10 -11z"/>
<path d="M320 1900 c0 -5 5 -10 11 -10 5 0 7 5 4 10 -3 6 -8 10 -11 10 -2 0
-4 -4 -4 -10z"/>
<path d="M6815 1900 c3 -5 8 -10 11 -10 2 0 4 5 4 10 0 6 -5 10 -11 10 -5 0
-7 -4 -4 -10z"/>
<path d="M680 1874 l-25 -14 31 0 c16 0 36 -6 43 -12 11 -11 13 -10 7 5 -3 10
-6 23 -6 28 0 12 -20 10 -50 -7z"/>
<path d="M100 1822 c0 -6 -3 -17 -6 -25 -8 -22 56 -28 73 -7 11 13 14 13 22 1
5 -8 16 -11 25 -8 16 6 22 26 9 28 -5 1 -19 3 -33 5 -14 2 -40 6 -57 10 -20 4
-33 2 -33 -4z"/>
<path d="M5672 1788 c3 -8 24 -14 52 -16 36 -2 47 0 44 10 -3 8 -24 14 -52 16
-36 2 -47 0 -44 -10z"/>
<path d="M5900 1771 c0 -5 11 -11 25 -13 20 -4 23 -3 14 8 -13 16 -39 19 -39
5z"/>
<path d="M6147 1756 c-32 -10 -36 -14 -25 -24 17 -14 104 -10 119 5 31 31 -23
41 -94 19z"/>
<path d="M5297 1754 c-14 -14 -6 -24 19 -24 16 0 24 5 22 13 -5 14 -31 21 -41
11z"/>
<path d="M6260 1736 c0 -22 54 -58 68 -44 7 7 20 7 45 -1 19 -7 46 -9 60 -6
15 4 30 1 40 -9 18 -18 26 -19 46 -7 26 17 -6 41 -53 41 -23 0 -51 6 -61 14
-14 10 -26 11 -48 3 -22 -7 -37 -6 -63 6 -28 14 -34 14 -34 3z"/>
<path d="M5670 1710 c8 -5 35 -10 60 -10 33 0 41 3 30 10 -8 5 -35 10 -60 10
-33 0 -41 -3 -30 -10z"/>
<path d="M5270 1663 c0 -23 5 -33 15 -33 18 0 18 1 0 36 l-15 29 0 -32z"/>
<path d="M7070 1662 c-43 -21 -44 -34 -5 -45 17 -5 38 -13 47 -18 30 -15 38
-10 38 24 0 33 -15 57 -34 57 -6 0 -27 -8 -46 -18z"/>
<path d="M475 1660 c-3 -5 1 -10 10 -10 9 0 13 5 10 10 -3 6 -8 10 -10 10 -2
0 -7 -4 -10 -10z"/>
<path d="M5572 1658 c3 -8 25 -14 54 -15 l49 -3 -40 15 c-49 18 -68 19 -63 3z"/>
<path d="M6514 1636 c-3 -9 -12 -16 -20 -16 -28 0 -1 -30 33 -36 42 -8 70 11
30 21 -16 4 -24 12 -21 20 3 7 1 16 -5 20 -6 3 -14 -1 -17 -9z"/>
<path d="M6890 1630 c0 -5 7 -10 16 -10 8 0 12 5 9 10 -3 6 -10 10 -16 10 -5
0 -9 -4 -9 -10z"/>
<path d="M6965 1630 c-9 -14 -6 -17 20 -22 13 -2 20 3 20 12 0 18 -30 26 -40
10z"/>
<path d="M5850 1616 c0 -2 9 -6 20 -9 11 -3 20 -1 20 4 0 5 -9 9 -20 9 -11 0
-20 -2 -20 -4z"/>
<path d="M6600 1591 c0 -5 7 -12 16 -15 22 -9 24 -8 18 9 -7 16 -34 21 -34 6z"/>
<path d="M6355 1540 c28 -12 57 -12 50 0 -3 6 -21 10 -38 9 -27 0 -29 -2 -12
-9z"/>
<path d="M520 1495 c0 -3 8 -15 18 -25 18 -20 19 -20 42 5 l23 25 -41 0 c-23
0 -42 -2 -42 -5z"/>
<path d="M5481 998 c-13 -21 -7 -38 13 -38 7 0 20 -8 29 -18 15 -16 24 -17 76
-8 45 7 61 14 64 28 5 16 -1 19 -36 18 -71 0 -94 2 -74 7 30 8 13 27 -25 28
-25 1 -39 -4 -47 -17z"/>
<path d="M6710 1010 c0 -5 7 -10 15 -10 8 0 15 5 15 10 0 6 -7 10 -15 10 -8 0
-15 -4 -15 -10z"/>
<path d="M6893 1008 c-34 -9 -46 -38 -15 -38 21 0 68 35 56 42 -5 3 -24 1 -41
-4z"/>
<path d="M5387 1003 c-8 -7 11 -33 24 -33 5 0 9 9 9 20 0 19 -20 27 -33 13z"/>
<path d="M6140 794 c-8 -3 -22 -8 -30 -11 -11 -3 -8 -8 11 -18 21 -12 32 -12
53 -2 14 7 24 17 23 22 -4 12 -35 16 -57 9z"/>
<path d="M6370 731 c0 -5 6 -13 13 -19 15 -13 42 1 33 17 -8 13 -46 15 -46 2z"/>
<path d="M6430 725 c0 -8 5 -15 10 -15 6 0 10 7 10 15 0 8 -4 15 -10 15 -5 0
-10 -7 -10 -15z"/>
<path d="M6567 726 c-6 -16 2 -28 14 -20 12 7 11 34 0 34 -5 0 -11 -6 -14 -14z"/>
<path d="M5900 719 c0 -5 5 -7 10 -4 6 3 10 8 10 11 0 2 -4 4 -10 4 -5 0 -10
-5 -10 -11z"/>
</g>
</svg>
